<svg width="125" height="125" viewBox="0 0 125 125" fill="none" xmlns="http://www.w3.org/2000/svg">
<path d="M7.48802 56.9711C10.6379 26.4888 37.9123 4.32373 68.4092 7.48809C98.9061 10.6379 121.057 37.9124 117.907 68.4093C114.757 98.9062 87.4825 121.057 56.9856 117.907C26.4887 114.742 4.32366 87.468 7.48802 56.9711Z" fill="#0097C5"/>
<path d="M1.33355 56.347C4.84628 22.4535 35.1545 -2.17918 69.048 1.33355C102.941 4.84628 127.574 35.1545 124.061 69.048C120.549 102.941 90.2405 127.574 56.347 124.061C22.4535 120.549 -2.17918 90.226 1.33355 56.347Z" stroke="#00B49D" stroke-width="1.252" stroke-miterlimit="10" stroke-dasharray="6.17 6.17"/>
<path d="M68.5691 77.2637C68.5691 77.2637 68.6126 66.7545 68.6997 65.5933C69.0916 60.9629 71.6173 57.5808 76.2623 57.5808C80.9072 57.5808 83.4329 60.9629 83.8248 65.5933C83.9264 66.7545 83.9554 77.2637 83.9554 77.2637" fill="white"/>
<path d="M68.5691 77.2637C68.5691 77.2637 68.6126 66.7545 68.6997 65.5933C69.0916 60.9629 71.6173 57.5808 76.2623 57.5808C80.9072 57.5808 83.4329 60.9629 83.8248 65.5933C83.9264 66.7545 83.9554 77.2637 83.9554 77.2637" stroke="#001F3A" stroke-width="0.5" stroke-miterlimit="10" stroke-linecap="round" stroke-linejoin="round"/>
<path d="M75.3476 97.5562H64.853C63.3143 97.5562 62.0951 96.2789 62.1531 94.7402L62.6466 81.8941C62.7773 78.4975 65.5642 75.8267 68.9608 75.8267H72.2849C72.5171 75.8267 72.7349 75.8702 72.9526 75.9428C74.0122 76.3202 75.1299 76.5089 76.2331 76.5234C76.2476 76.5234 76.2476 76.5234 76.2621 76.5234C77.3798 76.5234 78.512 76.3347 79.5861 75.9428C79.8039 75.8702 80.0216 75.8267 80.2538 75.8267H83.5343C86.9309 75.8267 89.7179 78.512 89.8485 81.8941L90.313 93.8983L92.65 89.7034C92.8387 89.3695 93.2596 89.2389 93.608 89.4131L96.4821 90.8791C96.8304 91.0533 96.9611 91.4743 96.8014 91.8226L94.1741 97.5562" fill="white"/>
<path d="M75.3476 97.5562H64.853C63.3143 97.5562 62.0951 96.2789 62.1531 94.7402L62.6466 81.8941C62.7773 78.4975 65.5642 75.8267 68.9608 75.8267H72.2849C72.5171 75.8267 72.7349 75.8702 72.9526 75.9428C74.0122 76.3202 75.1299 76.5089 76.2331 76.5234C76.2476 76.5234 76.2476 76.5234 76.2621 76.5234C77.3798 76.5234 78.512 76.3347 79.5861 75.9428C79.8039 75.8702 80.0216 75.8267 80.2538 75.8267H83.5343C86.9309 75.8267 89.7179 78.512 89.8485 81.8941L90.313 93.8983L92.65 89.7034C92.8387 89.3695 93.2596 89.2389 93.608 89.4131L96.4821 90.8791C96.8304 91.0533 96.9611 91.4743 96.8014 91.8226L94.1741 97.5562" stroke="#001F3A" stroke-width="0.5" stroke-miterlimit="10" stroke-linecap="round" stroke-linejoin="round"/>
<path d="M69.9481 65.5933C69.1933 65.9272 68.6562 66.7836 68.6562 67.7996C68.6562 68.8593 69.2514 69.7447 70.0497 70.0495C70.2384 70.1221 70.3981 70.2673 70.4707 70.456C71.5158 72.9671 73.7221 74.709 76.2623 74.709C78.8025 74.709 80.9944 72.9816 82.054 70.456C82.1411 70.2527 82.2862 70.1076 82.4749 70.0495C83.2878 69.7447 83.8684 68.8593 83.8684 67.7996C83.8684 66.7981 83.3313 65.9272 82.5765 65.5933C80.7911 66.6965 76.0591 65.3175 74.6801 61.6886C74.5931 61.4709 74.2882 61.4854 74.2302 61.7177C73.635 64.1853 72.227 66.6384 69.9481 65.5933Z" fill="white"/>
<path d="M69.9481 65.5933C69.1933 65.9272 68.6562 66.7836 68.6562 67.7996C68.6562 68.8593 69.2514 69.7447 70.0497 70.0495C70.2384 70.1221 70.3981 70.2673 70.4707 70.456C71.5158 72.9671 73.7221 74.709 76.2623 74.709C78.8025 74.709 80.9944 72.9816 82.054 70.456C82.1411 70.2527 82.2862 70.1076 82.4749 70.0495C83.2878 69.7447 83.8684 68.8593 83.8684 67.7996C83.8684 66.7981 83.3313 65.9272 82.5765 65.5933C80.7911 66.6965 76.0591 65.3175 74.6801 61.6886C74.5931 61.4709 74.2882 61.4854 74.2302 61.7177C73.635 64.1853 72.227 66.6384 69.9481 65.5933Z" stroke="#001F3A" stroke-width="0.5" stroke-miterlimit="10" stroke-linecap="round" stroke-linejoin="round"/>
<path d="M69.9624 94.4645V83.636C69.9624 83.1134 70.3979 82.6779 70.9204 82.6779H81.4441C81.9667 82.6779 82.4021 83.0989 82.4021 83.636V94.0725" fill="white"/>
<path d="M69.9624 94.4645V83.636C69.9624 83.1134 70.3979 82.6779 70.9204 82.6779H81.4441C81.9667 82.6779 82.4021 83.0989 82.4021 83.636V94.0725" stroke="#001F3A" stroke-width="0.5" stroke-miterlimit="10" stroke-linecap="round" stroke-linejoin="round"/>
<path d="M84.9711 97.5562L84.405 84.8553" stroke="#001F3A" stroke-width="0.5" stroke-miterlimit="10" stroke-linecap="round" stroke-linejoin="round"/>
<path d="M93.4482 89.3696L95.3933 86.0746C95.7417 85.4939 96.3658 85.1311 97.0481 85.1311H98.4415C98.6738 85.1311 98.906 85.2181 99.0657 85.3778C99.2689 85.5665 99.5592 85.6536 99.835 85.6101L101.94 85.2762C102.433 85.2036 102.883 85.581 102.883 86.0746C102.883 86.4084 102.666 86.7132 102.346 86.8294L100.3 87.5842C100.256 87.5987 100.198 87.6132 100.154 87.6277L97.919 87.9325C97.3964 88.0051 96.9755 88.4115 96.9029 88.9341L96.5981 90.9517" fill="white"/>
<path d="M93.4482 89.3696L95.3933 86.0746C95.7417 85.4939 96.3658 85.1311 97.0481 85.1311H98.4415C98.6738 85.1311 98.906 85.2181 99.0657 85.3778C99.2689 85.5665 99.5592 85.6536 99.835 85.6101L101.94 85.2762C102.433 85.2036 102.883 85.581 102.883 86.0746C102.883 86.4084 102.666 86.7132 102.346 86.8294L100.3 87.5842C100.256 87.5987 100.198 87.6132 100.154 87.6277L97.919 87.9325C97.3964 88.0051 96.9755 88.4115 96.9029 88.9341L96.5981 90.9517" stroke="#001F3A" stroke-width="0.5" stroke-miterlimit="10" stroke-linecap="round" stroke-linejoin="round"/>
<path d="M80.2542 75.8412C80.2542 80.0507 77.0317 82.678 77.0317 82.678Z" fill="white"/>
<path d="M80.2542 75.8412C80.2542 80.0507 77.0317 82.678 77.0317 82.678" stroke="#001F3A" stroke-width="0.5" stroke-miterlimit="10" stroke-linecap="round" stroke-linejoin="round"/>
<path d="M72.2852 75.8412C72.2852 80.0507 75.5076 82.678 75.5076 82.678Z" fill="white"/>
<path d="M72.2852 75.8412C72.2852 80.0507 75.5076 82.678 75.5076 82.678" stroke="#001F3A" stroke-width="0.5" stroke-miterlimit="10" stroke-linecap="round" stroke-linejoin="round"/>
<path d="M87.0617 65.9272V73.4897H96.4096L101.127 71.1672V65.9417L102.854 65.1869L94.1017 58.713L85.3489 65.1869L87.0617 65.9272Z" fill="white"/>
<path d="M87.0617 65.9272V73.4897H96.4096L101.127 71.1672V65.9417L102.854 65.1869L94.1017 58.713L85.3489 65.1869L87.0617 65.9272Z" stroke="#001F3A" stroke-width="0.5" stroke-miterlimit="10" stroke-linecap="round" stroke-linejoin="round"/>
<path d="M96.177 65.7965H92.0256V69.9479H96.177V65.7965Z" fill="white"/>
<path d="M96.177 65.7965H92.0256V69.9479H96.177V65.7965Z" stroke="#001F3A" stroke-width="0.5" stroke-miterlimit="10" stroke-linecap="round" stroke-linejoin="round"/>
<path d="M102.405 73.6203C102.405 71.8494 100.866 70.4415 99.0515 70.6447C97.7161 70.7898 96.6274 71.8494 96.4242 73.1703C96.2355 74.4913 96.8887 75.667 97.9338 76.2476C98.0209 76.2912 98.079 76.3783 98.079 76.4799V77.2202L98.9354 78.4685L98.079 78.7007V79.92L98.8193 80.849L98.079 81.4732V82.8812L99.3854 83.9118L100.692 82.8812V76.4653C100.692 76.3637 100.75 76.2766 100.837 76.2331C101.78 75.7251 102.405 74.738 102.405 73.6203Z" fill="white"/>
<path d="M102.405 73.6203C102.405 71.8494 100.866 70.4415 99.0515 70.6447C97.7161 70.7898 96.6274 71.8494 96.4242 73.1703C96.2355 74.4913 96.8887 75.667 97.9338 76.2476C98.0209 76.2912 98.079 76.3783 98.079 76.4799V77.2202L98.9354 78.4685L98.079 78.7007V79.92L98.8193 80.849L98.079 81.4732V82.8812L99.3854 83.9118L100.692 82.8812V76.4653C100.692 76.3637 100.75 76.2766 100.837 76.2331C101.78 75.7251 102.405 74.738 102.405 73.6203Z" stroke="#001F3A" stroke-width="0.5" stroke-miterlimit="10" stroke-linecap="round" stroke-linejoin="round"/>
<path d="M100.358 73.0832C100.358 73.6203 99.9225 74.0413 99.3999 74.0413C98.8774 74.0413 98.4419 73.6058 98.4419 73.0832C98.4419 72.5607 98.8774 72.1252 99.3999 72.1252C99.937 72.1107 100.358 72.5462 100.358 73.0832Z" fill="white"/>
<path d="M100.358 73.0832C100.358 73.6203 99.9225 74.0413 99.3999 74.0413C98.8774 74.0413 98.4419 73.6058 98.4419 73.0832C98.4419 72.5607 98.8774 72.1252 99.3999 72.1252C99.937 72.1107 100.358 72.5462 100.358 73.0832Z" stroke="#001F3A" stroke-width="0.5" stroke-miterlimit="10" stroke-linecap="round" stroke-linejoin="round"/>
<path d="M78.1203 87.4099H74.2592C74.1286 87.4099 74.0125 87.3083 74.0125 87.1777V85.4939C74.0125 85.3633 74.1141 85.2617 74.2592 85.2617H78.1203C78.2509 85.2617 78.3526 85.3633 78.3526 85.4939V87.1777C78.3526 87.3083 78.2509 87.4099 78.1203 87.4099Z" fill="white"/>
<path d="M78.1203 87.4099H74.2592C74.1286 87.4099 74.0125 87.3083 74.0125 87.1777V85.4939C74.0125 85.3633 74.1141 85.2617 74.2592 85.2617H78.1203C78.2509 85.2617 78.3526 85.3633 78.3526 85.4939V87.1777C78.3526 87.3083 78.2509 87.4099 78.1203 87.4099Z" stroke="#001F3A" stroke-width="0.5" stroke-miterlimit="10" stroke-linecap="round" stroke-linejoin="round"/>
<path d="M72.2852 89.8486H79.9783" stroke="#001F3A" stroke-width="0.5" stroke-miterlimit="10" stroke-linecap="round" stroke-linejoin="round"/>
<path d="M68.0026 84.8553L67.6833 92.0404C67.6688 92.3162 67.8865 92.5484 68.1623 92.5484" fill="white"/>
<path d="M68.0026 84.8553L67.6833 92.0404C67.6688 92.3162 67.8865 92.5484 68.1623 92.5484" stroke="#001F3A" stroke-width="0.5" stroke-miterlimit="10" stroke-linecap="round" stroke-linejoin="round"/>
<path d="M76.0732 93.1436H77.7134C78.0473 93.1436 78.3811 93.0274 78.6279 92.8097L79.223 92.3162C79.4117 92.1565 79.6585 92.0694 79.9198 92.0694H82.0245C82.5035 92.0694 82.8954 92.4613 82.8954 92.9404V96.6998C82.8954 97.1789 82.5035 97.5708 82.0245 97.5708H75.3474" fill="white"/>
<path d="M76.0732 93.1436H77.7134C78.0473 93.1436 78.3811 93.0274 78.6279 92.8097L79.223 92.3162C79.4117 92.1565 79.6585 92.0694 79.9198 92.0694H82.0245C82.5035 92.0694 82.8954 92.4613 82.8954 92.9404V96.6998C82.8954 97.1789 82.5035 97.5708 82.0245 97.5708H75.3474" stroke="#001F3A" stroke-width="0.5" stroke-miterlimit="10" stroke-linecap="round" stroke-linejoin="round"/>
<path d="M68.1771 92.5484H75.3623C75.7542 92.5484 76.0735 92.8678 76.0735 93.2742V96.8595C76.0735 97.2514 75.7542 97.5853 75.3623 97.5853H67.3643" fill="white"/>
<path d="M68.1771 92.5484H75.3623C75.7542 92.5484 76.0735 92.8678 76.0735 93.2742V96.8595C76.0735 97.2514 75.7542 97.5853 75.3623 97.5853H67.3643" stroke="#001F3A" stroke-width="0.5" stroke-miterlimit="10" stroke-linecap="round" stroke-linejoin="round"/>
<path d="M59.8888 41.7445L49.5393 28.1725L40.0027 42.3396" fill="white"/>
<path d="M59.8888 41.7445L49.5393 28.1725L40.0027 42.3396" stroke="#001F3A" stroke-width="0.5" stroke-miterlimit="10" stroke-linecap="round" stroke-linejoin="round"/>
<path d="M53.3568 52.6165L42.3976 32.9626L36.4318 42.5864L30.1902 52.6165" fill="white"/>
<path d="M53.3568 52.6165L42.3976 32.9626L36.4318 42.5864L30.1902 52.6165" stroke="#001F3A" stroke-width="0.5" stroke-miterlimit="10" stroke-linecap="round" stroke-linejoin="round"/>
<path d="M78.2508 52.3117L60.3533 25.6033L39.8721 52.7617" fill="white"/>
<path d="M78.2508 52.3117L60.3533 25.6033L39.8721 52.7617" stroke="#001F3A" stroke-width="0.5" stroke-miterlimit="10" stroke-linecap="round" stroke-linejoin="round"/>
<path d="M36.2288 42.9057L37.6222 45.1701L39.6834 41.817L41.6285 44.9669L43.6461 41.6864L45.2719 44.3282" fill="white"/>
<path d="M36.2288 42.9057L37.6222 45.1701L39.6834 41.817L41.6285 44.9669L43.6461 41.6864L45.2719 44.3282" stroke="#001F3A" stroke-width="0.5" stroke-miterlimit="10" stroke-linecap="round" stroke-linejoin="round"/>
<path d="M81.1393 52.7617H55.1277V25.5453L68.1335 20.3052L81.1393 25.5453V52.7617Z" fill="white"/>
<path d="M81.1393 52.7617H55.1277V25.5453L68.1335 20.3052L81.1393 25.5453V52.7617Z" stroke="#001F3A" stroke-width="0.5" stroke-miterlimit="10" stroke-linecap="round" stroke-linejoin="round"/>
<path d="M59.1047 34.6464H77.1619" stroke="#001F3A" stroke-width="0.5" stroke-miterlimit="10" stroke-linecap="round" stroke-linejoin="round"/>
<path d="M51.949 52.7617H84.3474" stroke="#001F3A" stroke-width="0.5" stroke-miterlimit="10" stroke-linecap="round" stroke-linejoin="round"/>
<path d="M68.0318 26.3291C66.8125 26.3291 65.8254 27.3887 65.8254 28.7096V31.8304H70.2236V28.7096C70.2236 27.3887 69.2366 26.3291 68.0318 26.3291Z" fill="white"/>
<path d="M68.0318 26.3291C66.8125 26.3291 65.8254 27.3887 65.8254 28.7096V31.8304H70.2236V28.7096C70.2236 27.3887 69.2366 26.3291 68.0318 26.3291Z" stroke="#001F3A" stroke-width="0.5" stroke-miterlimit="10" stroke-linecap="round" stroke-linejoin="round"/>
<path d="M61.4998 52.7617C61.4998 50.7295 60.3822 49.0457 58.8871 48.6683C57.7549 45.9684 55.5485 44.1395 53.0083 44.1395C50.7875 44.1395 48.8279 45.5475 47.6086 47.6958C45.5039 47.7974 43.8201 50.0182 43.8201 52.7617H61.4998Z" fill="white"/>
<path d="M61.4998 52.7617C61.4998 50.7295 60.3822 49.0457 58.8871 48.6683C57.7549 45.9684 55.5485 44.1395 53.0083 44.1395C50.7875 44.1395 48.8279 45.5475 47.6086 47.6958C45.5039 47.7974 43.8201 50.0182 43.8201 52.7617H61.4998Z" stroke="#001F3A" stroke-width="0.5" stroke-miterlimit="10" stroke-linecap="round" stroke-linejoin="round"/>
<path d="M63.2854 52.631V22.2648" stroke="#001F3A" stroke-width="0.5" stroke-miterlimit="10" stroke-linecap="round" stroke-linejoin="round"/>
<path d="M72.7637 52.7617V22.3809" stroke="#001F3A" stroke-width="0.5" stroke-miterlimit="10" stroke-linecap="round" stroke-linejoin="round"/>
<path d="M63.2854 39.0446L68.0319 34.6754L72.764 39.0446" fill="white"/>
<path d="M63.2854 39.0446L68.0319 34.6754L72.764 39.0446" stroke="#001F3A" stroke-width="0.5" stroke-miterlimit="10" stroke-linecap="round" stroke-linejoin="round"/>
<path d="M75.3186 39.7268H60.7161V47.8264H75.3186V39.7268Z" fill="white"/>
<path d="M75.3186 39.7268H60.7161V47.8264H75.3186V39.7268Z" stroke="#001F3A" stroke-width="0.5" stroke-miterlimit="10" stroke-linecap="round" stroke-linejoin="round"/>
<path d="M68.0317 39.7268V47.8264" stroke="#001F3A" stroke-width="0.5" stroke-miterlimit="10" stroke-linecap="round" stroke-linejoin="round"/>
<path d="M46.288 88.818H24.152C22.6715 88.818 21.4812 87.6132 21.4812 86.1471V71.0656C21.4812 69.585 22.686 68.3948 24.152 68.3948H46.288C47.7686 68.3948 48.9589 69.5996 48.9589 71.0656V86.1326C48.9589 87.6277 47.7686 88.818 46.288 88.818Z" fill="white"/>
<path d="M46.288 88.818H24.152C22.6715 88.818 21.4812 87.6132 21.4812 86.1471V71.0656C21.4812 69.585 22.686 68.3948 24.152 68.3948H46.288C47.7686 68.3948 48.9589 69.5996 48.9589 71.0656V86.1326C48.9589 87.6277 47.7686 88.818 46.288 88.818Z" stroke="#001F3A" stroke-width="0.5" stroke-miterlimit="10" stroke-linecap="round" stroke-linejoin="round"/>
<path d="M52.6747 60.121H21.5391C20.8714 60.121 20.3198 60.6726 20.3198 61.3403C20.3198 62.008 20.8714 62.5596 21.5391 62.5596H52.6747" fill="white"/>
<path d="M52.6747 60.121H21.5391C20.8714 60.121 20.3198 60.6726 20.3198 61.3403C20.3198 62.008 20.8714 62.5596 21.5391 62.5596H52.6747" stroke="#001F3A" stroke-width="0.5" stroke-miterlimit="10" stroke-linecap="round" stroke-linejoin="round"/>
<path d="M36.5044 83.6069H41.8606C41.9767 83.6069 42.0783 83.5053 42.0783 83.3892V77.2202" fill="white"/>
<path d="M36.5044 83.6069H41.8606C41.9767 83.6069 42.0783 83.5053 42.0783 83.3892V77.2202" stroke="#001F3A" stroke-width="0.5" stroke-miterlimit="10" stroke-linecap="round" stroke-linejoin="round"/>
<path d="M43.6462 76.3492L35.895 70.6302C35.8079 70.5721 35.7063 70.5721 35.6337 70.6302L27.897 76.3492" fill="white"/>
<path d="M43.6462 76.3492L35.895 70.6302C35.8079 70.5721 35.7063 70.5721 35.6337 70.6302L27.897 76.3492" stroke="#001F3A" stroke-width="0.5" stroke-miterlimit="10" stroke-linecap="round" stroke-linejoin="round"/>
<path d="M33.8914 76.6831H37.4041C37.5202 76.6831 37.6218 76.7847 37.6218 76.9008V80.1958C37.6218 80.3264 37.5202 80.4135 37.4041 80.4135H36.5186" fill="white"/>
<path d="M33.8914 76.6831H37.4041C37.5202 76.6831 37.6218 76.7847 37.6218 76.9008V80.1958C37.6218 80.3264 37.5202 80.4135 37.4041 80.4135H36.5186" stroke="#001F3A" stroke-width="0.5" stroke-miterlimit="10" stroke-linecap="round" stroke-linejoin="round"/>
<path d="M35.0821 82.0247C35.0821 84.4924 33.079 86.481 30.6259 86.481C28.1583 86.481 26.1697 84.4778 26.1697 82.0247C26.1697 79.5571 28.1728 77.5685 30.6259 77.5685C33.079 77.5685 35.0821 79.5716 35.0821 82.0247Z" fill="white"/>
<path d="M35.0821 82.0247C35.0821 84.4924 33.079 86.481 30.6259 86.481C28.1583 86.481 26.1697 84.4778 26.1697 82.0247C26.1697 79.5571 28.1728 77.5685 30.6259 77.5685C33.079 77.5685 35.0821 79.5716 35.0821 82.0247Z" stroke="#001F3A" stroke-width="0.5" stroke-miterlimit="10" stroke-linecap="round" stroke-linejoin="round"/>
<path d="M44.2122 69.7447V62.5596" stroke="#001F3A" stroke-width="0.5" stroke-miterlimit="10" stroke-linecap="round" stroke-linejoin="round"/>
<path d="M26.6772 69.7447V62.5596" stroke="#001F3A" stroke-width="0.5" stroke-miterlimit="10" stroke-linecap="round" stroke-linejoin="round"/>
<path d="M52.6748 94.566V59.0178C52.6748 58.1614 53.3715 57.4501 54.2425 57.4501C55.1134 57.4501 55.7956 58.1469 55.7956 59.0178V94.5515" fill="white"/>
<path d="M52.6748 94.566V59.0178C52.6748 58.1614 53.3715 57.4501 54.2425 57.4501C55.1134 57.4501 55.7956 58.1469 55.7956 59.0178V94.5515" stroke="#001F3A" stroke-width="0.5" stroke-miterlimit="10" stroke-linecap="round" stroke-linejoin="round"/>
<path d="M58.2342 94.5661H42.8479" stroke="#001F3A" stroke-width="0.5" stroke-miterlimit="10" stroke-linecap="round" stroke-linejoin="round"/>
<path d="M32.8756 82.6344C32.8756 83.3457 32.4837 83.9698 31.7144 84.4924C31.4241 84.6956 31.2064 84.8117 31.0467 84.8408C30.9306 84.8553 30.6838 84.8553 30.3064 84.8262C30.1322 84.8117 29.9435 84.7101 29.7403 84.5359C29.5371 84.3472 29.4355 84.173 29.4355 84.0134C29.421 83.8392 29.421 83.2295 29.421 82.1989H28.9129L28.3613 81.6474H29.479C29.4935 81.5893 29.4935 81.2264 29.479 80.5442C29.479 80.2829 29.3484 80.1523 29.0726 80.1523C28.9565 80.1523 28.8694 80.1668 28.8258 80.2103C28.7823 80.1087 28.7242 79.92 28.6371 79.6733C28.971 79.5281 29.2468 79.4991 29.45 79.5862C29.8419 79.7313 30.0451 80.0071 30.0306 80.4136C30.0161 80.6458 30.0306 80.9216 30.0451 81.2119C30.0596 81.4006 30.0596 81.5458 30.0451 81.6474H30.3645L30.916 82.1989H30.0451V83.7666C30.0451 84.086 30.2338 84.2456 30.6112 84.2456C31.0902 84.2456 31.4531 83.9989 31.7289 83.4908C31.9176 83.157 32.0047 82.9392 31.9757 82.8521C31.6999 82.8667 31.4676 82.8231 31.308 82.6925C31.1338 82.5618 31.0612 82.3586 31.1047 82.0828C31.1483 81.6328 31.395 81.4006 31.8595 81.4006C32.5273 81.3716 32.8756 81.7925 32.8756 82.6344Z" fill="black"/>
</svg>
