<svg width="125" height="125" viewBox="0 0 125 125" fill="none" xmlns="http://www.w3.org/2000/svg">
<path d="M7.49974 56.9711C10.6496 26.4742 37.9241 4.32372 68.4209 7.47357C98.9178 10.6234 121.068 37.8979 117.919 68.3948C114.769 98.8917 87.4942 121.042 56.9973 117.892C26.5004 114.743 4.33538 87.468 7.49974 56.9711Z" fill="#0097C5"/>
<path d="M1.33095 56.347C4.84368 22.4535 35.1519 -2.17918 69.0454 1.33355C102.939 4.84628 127.572 35.1545 124.059 69.048C120.546 102.941 90.2379 127.574 56.3444 124.061C22.4654 120.549 -2.16726 90.226 1.33095 56.347Z" stroke="#00B49D" stroke-width="1.252" stroke-miterlimit="10" stroke-dasharray="6.17 6.17"/>
<path d="M93.9246 45.8233C93.9537 46.4039 93.7795 46.9845 93.3876 47.4781C92.5457 48.5232 91.007 48.7119 89.9474 47.8845L88.8007 47.0136L83.2848 42.717L89.5845 47.6377C90.6877 48.5087 90.8909 50.1344 90.02 51.2521C89.1781 52.3407 87.6249 52.5294 86.5508 51.673L79.9173 46.4184L85.6363 50.9908C86.7395 51.8182 86.9427 53.3858 86.0718 54.4455C85.2299 55.4761 83.6767 55.6648 82.6171 54.8519L80.7446 53.4294L81.6446 54.1261C82.7478 54.9535 82.951 56.5212 82.08 57.5808C81.2382 58.6259 79.685 58.8001 78.6108 57.9872L76.9851 56.7534L59.436 45.025C58.2167 44.1105 57.8974 42.4557 58.6812 41.1784L58.7393 41.0768L63.2826 33.4707L65.1696 30.3063C67.0131 27.2291 71.1354 26.4743 73.9369 28.7241L76.2449 30.5676L78.4802 28.8258C81.5575 26.4452 86.0137 27.2291 88.1039 30.5241L90.3539 34.2255L94.9407 41.8025C95.7681 43.167 95.3617 44.9233 94.0262 45.7943L93.9246 45.8233Z" fill="white"/>
<path d="M93.9246 45.8233C93.9537 46.4039 93.7795 46.9845 93.3876 47.4781C92.5457 48.5232 91.007 48.7119 89.9474 47.8845L88.8007 47.0136L83.2848 42.717L89.5845 47.6377C90.6877 48.5087 90.8909 50.1344 90.02 51.2521C89.1781 52.3407 87.6249 52.5294 86.5508 51.673L79.9173 46.4184L85.6363 50.9908C86.7395 51.8182 86.9427 53.3858 86.0718 54.4455C85.2299 55.4761 83.6767 55.6648 82.6171 54.8519L80.7446 53.4294L81.6446 54.1261C82.7478 54.9535 82.951 56.5212 82.08 57.5808C81.2382 58.6259 79.685 58.8001 78.6108 57.9872L76.9851 56.7534L59.436 45.025C58.2167 44.1105 57.8974 42.4557 58.6812 41.1784L58.7393 41.0768L63.2826 33.4707L65.1696 30.3063C67.0131 27.2291 71.1354 26.4743 73.9369 28.7241L76.2449 30.5676L78.4802 28.8258C81.5575 26.4452 86.0137 27.2291 88.1039 30.5241L90.3539 34.2255L94.9407 41.8025C95.7681 43.167 95.3617 44.9233 94.0262 45.7943L93.9246 45.8233Z" stroke="#001F3A" stroke-width="0.488" stroke-miterlimit="10" stroke-linecap="round" stroke-linejoin="round"/>
<path d="M76.245 30.5821L75.4902 31.1627L69.2486 36.1851C68.1599 37.056 67.9857 38.6672 68.8857 39.7559L69.1905 40.1188C70.0759 41.1929 71.6726 41.3671 72.7613 40.4816L80.2512 34.3706L92.9813 43.9944C93.5909 44.4443 93.9103 45.1266 93.9538 45.8233" fill="white"/>
<path d="M76.245 30.5821L75.4902 31.1627L69.2486 36.1851C68.1599 37.056 67.9857 38.6672 68.8857 39.7559L69.1905 40.1188C70.0759 41.1929 71.6726 41.3671 72.7613 40.4816L80.2512 34.3706L92.9813 43.9944C93.5909 44.4443 93.9103 45.1266 93.9538 45.8233" stroke="#001F3A" stroke-width="0.488" stroke-miterlimit="10" stroke-linecap="round" stroke-linejoin="round"/>
<path d="M100.834 42.4267L98.0472 44.0379C97.2924 44.4734 96.3344 44.2266 95.8989 43.4863L86.8703 28.4338C86.4203 27.679 86.6817 26.692 87.451 26.2565L90.2089 24.7034C90.9492 24.2824 91.9072 24.5292 92.3427 25.2695L101.386 40.2639C101.85 41.0187 101.589 41.9912 100.834 42.4267Z" fill="white"/>
<path d="M100.834 42.4267L98.0472 44.0379C97.2924 44.4734 96.3344 44.2266 95.8989 43.4863L86.8703 28.4338C86.4203 27.679 86.6817 26.692 87.451 26.2565L90.2089 24.7034C90.9492 24.2824 91.9072 24.5292 92.3427 25.2695L101.386 40.2639C101.85 41.0187 101.589 41.9912 100.834 42.4267Z" stroke="#001F3A" stroke-width="0.488" stroke-miterlimit="10" stroke-linecap="round" stroke-linejoin="round"/>
<path d="M90.1799 27.6645L92.546 31.6127" stroke="#001F3A" stroke-width="0.488" stroke-miterlimit="10" stroke-linecap="round" stroke-linejoin="round"/>
<path d="M52.3529 42.4267L55.1399 44.0379C55.8947 44.4734 56.8527 44.2266 57.2882 43.4863L66.3167 28.4338C66.7667 27.679 66.5054 26.692 65.7361 26.2565L62.9782 24.7034C62.2379 24.2824 61.2799 24.5292 60.8444 25.2695L51.8013 40.2639C51.3223 41.0187 51.5836 41.9912 52.3529 42.4267Z" fill="white"/>
<path d="M52.3529 42.4267L55.1399 44.0379C55.8947 44.4734 56.8527 44.2266 57.2882 43.4863L66.3167 28.4338C66.7667 27.679 66.5054 26.692 65.7361 26.2565L62.9782 24.7034C62.2379 24.2824 61.2799 24.5292 60.8444 25.2695L51.8013 40.2639C51.3223 41.0187 51.5836 41.9912 52.3529 42.4267Z" stroke="#001F3A" stroke-width="0.488" stroke-miterlimit="10" stroke-linecap="round" stroke-linejoin="round"/>
<path d="M62.9925 27.6645L60.6265 31.6127" stroke="#001F3A" stroke-width="0.488" stroke-miterlimit="10" stroke-linecap="round" stroke-linejoin="round"/>
<path d="M62.5858 52.152C61.7149 51.0633 61.8891 49.4812 62.9632 48.6102L67.3178 45.083C68.4065 44.1976 70.0032 44.3717 70.8741 45.4749C71.7451 46.5636 71.5709 48.1457 70.4967 49.0167L66.1421 52.5439C65.0534 53.4148 63.4568 53.2407 62.5858 52.152Z" fill="white"/>
<path d="M62.5858 52.152C61.7149 51.0633 61.8891 49.4812 62.9632 48.6102L67.3178 45.083C68.4065 44.1976 70.0032 44.3717 70.8741 45.4749C71.7451 46.5636 71.5709 48.1457 70.4967 49.0167L66.1421 52.5439C65.0534 53.4148 63.4568 53.2407 62.5858 52.152Z" stroke="#001F3A" stroke-width="0.488" stroke-miterlimit="10" stroke-linecap="round" stroke-linejoin="round"/>
<path d="M59.4363 48.2183C58.5509 47.1297 58.7251 45.533 59.8138 44.6621L61.9911 42.9057C63.0797 42.0348 64.6619 42.209 65.5328 43.2976C66.4038 44.3863 66.2441 45.983 65.1409 46.8539L62.9636 48.6103C61.8894 49.4812 60.3073 49.307 59.4363 48.2183Z" fill="white"/>
<path d="M59.4363 48.2183C58.5509 47.1297 58.7251 45.533 59.8138 44.6621L61.9911 42.9057C63.0797 42.0348 64.6619 42.209 65.5328 43.2976C66.4038 44.3863 66.2441 45.983 65.1409 46.8539L62.9636 48.6103C61.8894 49.4812 60.3073 49.307 59.4363 48.2183Z" stroke="#001F3A" stroke-width="0.488" stroke-miterlimit="10" stroke-linecap="round" stroke-linejoin="round"/>
<path d="M71.9337 57.5953C71.0482 56.5067 71.2224 54.91 72.311 54.039L74.4884 52.2827C75.577 51.4117 77.1592 51.5859 78.0301 52.6601C78.901 53.7487 78.7414 55.3454 77.6382 56.2163L76.956 56.7679L75.4609 57.9727C74.4013 58.8436 72.8046 58.6695 71.9337 57.5953Z" fill="white"/>
<path d="M71.9337 57.5953C71.0482 56.5067 71.2224 54.91 72.311 54.039L74.4884 52.2827C75.577 51.4117 77.1592 51.5859 78.0301 52.6601C78.901 53.7487 78.7414 55.3454 77.6382 56.2163L76.956 56.7679L75.4609 57.9727C74.4013 58.8436 72.8046 58.6695 71.9337 57.5953Z" stroke="#001F3A" stroke-width="0.488" stroke-miterlimit="10" stroke-linecap="round" stroke-linejoin="round"/>
<path d="M66.5924 55.4325C65.7215 54.3439 65.8957 52.7617 66.9698 51.8908L71.3245 48.3635C72.4131 47.4781 74.0098 47.6523 74.8807 48.7554C75.7517 49.8441 75.5775 51.4263 74.5033 52.2972L70.1487 55.8244C69.0601 56.6954 67.4633 56.5212 66.5924 55.4325Z" fill="white"/>
<path d="M66.5924 55.4325C65.7215 54.3439 65.8957 52.7617 66.9698 51.8908L71.3245 48.3635C72.4131 47.4781 74.0098 47.6523 74.8807 48.7554C75.7517 49.8441 75.5775 51.4263 74.5033 52.2972L70.1487 55.8244C69.0601 56.6954 67.4633 56.5212 66.5924 55.4325Z" stroke="#001F3A" stroke-width="0.488" stroke-miterlimit="10" stroke-linecap="round" stroke-linejoin="round"/>
<path d="M93.9246 45.8233C93.9537 46.4039 93.7795 46.9845 93.3876 47.4781C92.5457 48.5232 91.007 48.7119 89.9474 47.8845L88.8007 47.0136L83.2848 42.717L89.5845 47.6377C90.6877 48.5087 90.8909 50.1344 90.02 51.2521C89.1781 52.3407 87.6249 52.5294 86.5508 51.673L79.9173 46.4184L85.6363 50.9908C86.7395 51.8182 86.9427 53.3858 86.0718 54.4455C85.2299 55.4761 83.6767 55.6648 82.6171 54.8519L80.7446 53.4294L81.6446 54.1261C82.7478 54.9535 82.951 56.5212 82.08 57.5808C81.2382 58.6259 79.685 58.8001 78.6108 57.9872L76.9851 56.7534L59.436 45.025C58.2167 44.1105 57.8974 42.4557 58.6812 41.1784L58.7393 41.0768L63.2826 33.4707L65.1696 30.3063C67.0131 27.2291 71.1354 26.4743 73.9369 28.7241L76.2449 30.5676L78.4802 28.8258C81.5575 26.4452 86.0137 27.2291 88.1039 30.5241L90.3539 34.2255L94.9407 41.8025C95.7681 43.167 95.3617 44.9233 94.0262 45.7943L93.9246 45.8233Z" fill="white"/>
<path d="M93.9246 45.8233C93.9537 46.4039 93.7795 46.9845 93.3876 47.4781C92.5457 48.5232 91.007 48.7119 89.9474 47.8845L88.8007 47.0136L83.2848 42.717L89.5845 47.6377C90.6877 48.5087 90.8909 50.1344 90.02 51.2521C89.1781 52.3407 87.6249 52.5294 86.5508 51.673L79.9173 46.4184L85.6363 50.9908C86.7395 51.8182 86.9427 53.3858 86.0718 54.4455C85.2299 55.4761 83.6767 55.6648 82.6171 54.8519L80.7446 53.4294L81.6446 54.1261C82.7478 54.9535 82.951 56.5212 82.08 57.5808C81.2382 58.6259 79.685 58.8001 78.6108 57.9872L76.9851 56.7534L59.436 45.025C58.2167 44.1105 57.8974 42.4557 58.6812 41.1784L58.7393 41.0768L63.2826 33.4707L65.1696 30.3063C67.0131 27.2291 71.1354 26.4743 73.9369 28.7241L76.2449 30.5676L78.4802 28.8258C81.5575 26.4452 86.0137 27.2291 88.1039 30.5241L90.3539 34.2255L94.9407 41.8025C95.7681 43.167 95.3617 44.9233 94.0262 45.7943L93.9246 45.8233Z" stroke="#001F3A" stroke-width="0.488" stroke-miterlimit="10" stroke-linecap="round" stroke-linejoin="round"/>
<path d="M76.245 30.5821L75.4902 31.1627L69.2486 36.1851C68.1599 37.056 67.9857 38.6672 68.8857 39.7559L69.1905 40.1188C70.0759 41.1929 71.6726 41.3671 72.7613 40.4816L80.2512 34.3706L92.9813 43.9944C93.5909 44.4443 93.9103 45.1266 93.9538 45.8233" fill="white"/>
<path d="M76.245 30.5821L75.4902 31.1627L69.2486 36.1851C68.1599 37.056 67.9857 38.6672 68.8857 39.7559L69.1905 40.1188C70.0759 41.1929 71.6726 41.3671 72.7613 40.4816L80.2512 34.3706L92.9813 43.9944C93.5909 44.4443 93.9103 45.1266 93.9538 45.8233" stroke="#001F3A" stroke-width="0.488" stroke-miterlimit="10" stroke-linecap="round" stroke-linejoin="round"/>
<path d="M100.834 42.4267L98.0472 44.0379C97.2924 44.4734 96.3344 44.2266 95.8989 43.4863L86.8703 28.4338C86.4203 27.679 86.6817 26.692 87.451 26.2565L90.2089 24.7034C90.9492 24.2824 91.9072 24.5292 92.3427 25.2695L101.386 40.2639C101.85 41.0187 101.589 41.9912 100.834 42.4267Z" fill="white"/>
<path d="M100.834 42.4267L98.0472 44.0379C97.2924 44.4734 96.3344 44.2266 95.8989 43.4863L86.8703 28.4338C86.4203 27.679 86.6817 26.692 87.451 26.2565L90.2089 24.7034C90.9492 24.2824 91.9072 24.5292 92.3427 25.2695L101.386 40.2639C101.85 41.0187 101.589 41.9912 100.834 42.4267Z" stroke="#001F3A" stroke-width="0.488" stroke-miterlimit="10" stroke-linecap="round" stroke-linejoin="round"/>
<path d="M90.1799 27.6645L92.546 31.6127" stroke="#001F3A" stroke-width="0.488" stroke-miterlimit="10" stroke-linecap="round" stroke-linejoin="round"/>
<path d="M52.3529 42.4267L55.1399 44.0379C55.8947 44.4734 56.8527 44.2266 57.2882 43.4863L66.3167 28.4338C66.7667 27.679 66.5054 26.692 65.7361 26.2565L62.9782 24.7034C62.2379 24.2824 61.2799 24.5292 60.8444 25.2695L51.8013 40.2639C51.3223 41.0187 51.5836 41.9912 52.3529 42.4267Z" fill="white"/>
<path d="M52.3529 42.4267L55.1399 44.0379C55.8947 44.4734 56.8527 44.2266 57.2882 43.4863L66.3167 28.4338C66.7667 27.679 66.5054 26.692 65.7361 26.2565L62.9782 24.7034C62.2379 24.2824 61.2799 24.5292 60.8444 25.2695L51.8013 40.2639C51.3223 41.0187 51.5836 41.9912 52.3529 42.4267Z" stroke="#001F3A" stroke-width="0.488" stroke-miterlimit="10" stroke-linecap="round" stroke-linejoin="round"/>
<path d="M62.9925 27.6645L60.6265 31.6127" stroke="#001F3A" stroke-width="0.488" stroke-miterlimit="10" stroke-linecap="round" stroke-linejoin="round"/>
<path d="M62.5858 52.152C61.7149 51.0633 61.8891 49.4812 62.9632 48.6102L67.3178 45.083C68.4065 44.1976 70.0032 44.3717 70.8741 45.4749C71.7451 46.5636 71.5709 48.1457 70.4967 49.0167L66.1421 52.5439C65.0534 53.4148 63.4568 53.2407 62.5858 52.152Z" fill="white"/>
<path d="M62.5858 52.152C61.7149 51.0633 61.8891 49.4812 62.9632 48.6102L67.3178 45.083C68.4065 44.1976 70.0032 44.3717 70.8741 45.4749C71.7451 46.5636 71.5709 48.1457 70.4967 49.0167L66.1421 52.5439C65.0534 53.4148 63.4568 53.2407 62.5858 52.152Z" stroke="#001F3A" stroke-width="0.488" stroke-miterlimit="10" stroke-linecap="round" stroke-linejoin="round"/>
<path d="M59.4363 48.2183C58.5509 47.1297 58.7251 45.533 59.8138 44.6621L61.9911 42.9057C63.0797 42.0348 64.6619 42.209 65.5328 43.2976C66.4038 44.3863 66.2441 45.983 65.1409 46.8539L62.9636 48.6103C61.8894 49.4812 60.3073 49.307 59.4363 48.2183Z" fill="white"/>
<path d="M59.4363 48.2183C58.5509 47.1297 58.7251 45.533 59.8138 44.6621L61.9911 42.9057C63.0797 42.0348 64.6619 42.209 65.5328 43.2976C66.4038 44.3863 66.2441 45.983 65.1409 46.8539L62.9636 48.6103C61.8894 49.4812 60.3073 49.307 59.4363 48.2183Z" stroke="#001F3A" stroke-width="0.488" stroke-miterlimit="10" stroke-linecap="round" stroke-linejoin="round"/>
<path d="M71.9337 57.5953C71.0482 56.5067 71.2224 54.91 72.311 54.039L74.4884 52.2827C75.577 51.4117 77.1592 51.5859 78.0301 52.6601C78.901 53.7487 78.7414 55.3454 77.6382 56.2163L76.956 56.7679L75.4609 57.9727C74.4013 58.8436 72.8046 58.6695 71.9337 57.5953Z" fill="white"/>
<path d="M71.9337 57.5953C71.0482 56.5067 71.2224 54.91 72.311 54.039L74.4884 52.2827C75.577 51.4117 77.1592 51.5859 78.0301 52.6601C78.901 53.7487 78.7414 55.3454 77.6382 56.2163L76.956 56.7679L75.4609 57.9727C74.4013 58.8436 72.8046 58.6695 71.9337 57.5953Z" stroke="#001F3A" stroke-width="0.488" stroke-miterlimit="10" stroke-linecap="round" stroke-linejoin="round"/>
<path d="M66.5924 55.4325C65.7215 54.3439 65.8957 52.7617 66.9698 51.8908L71.3245 48.3635C72.4131 47.4781 74.0098 47.6523 74.8807 48.7554C75.7517 49.8441 75.5775 51.4263 74.5033 52.2972L70.1487 55.8244C69.0601 56.6954 67.4633 56.5212 66.5924 55.4325Z" fill="white"/>
<path d="M66.5924 55.4325C65.7215 54.3439 65.8957 52.7617 66.9698 51.8908L71.3245 48.3635C72.4131 47.4781 74.0098 47.6523 74.8807 48.7554C75.7517 49.8441 75.5775 51.4263 74.5033 52.2972L70.1487 55.8244C69.0601 56.6954 67.4633 56.5212 66.5924 55.4325Z" stroke="#001F3A" stroke-width="0.488" stroke-miterlimit="10" stroke-linecap="round" stroke-linejoin="round"/>
<path d="M88.4815 70.8478V102.056H60.0894V64.6788H88.4815V70.8478Z" fill="white"/>
<path d="M88.4815 70.8478V102.056H60.0894V64.6788H88.4815V70.8478Z" stroke="#001F3A" stroke-width="0.488" stroke-miterlimit="10" stroke-linecap="round" stroke-linejoin="round"/>
<path d="M91.8059 82.2715V94.8128C91.8059 95.0596 91.9656 95.2773 92.1978 95.3644L92.9381 98.1804C93.0107 98.4562 93.3881 98.4562 93.4606 98.1804L94.2009 95.3644C94.4332 95.2773 94.5928 95.0741 94.5928 94.8128V82.2715H91.8059V82.2715Z" fill="white"/>
<path d="M91.8059 82.2715V94.8128C91.8059 95.0596 91.9656 95.2773 92.1978 95.3644L92.9381 98.1804C93.0107 98.4562 93.3881 98.4562 93.4606 98.1804L94.2009 95.3644C94.4332 95.2773 94.5928 95.0741 94.5928 94.8128V82.2715H91.8059V82.2715Z" stroke="#001F3A" stroke-width="0.488" stroke-miterlimit="10" stroke-linecap="round" stroke-linejoin="round"/>
<path d="M94.7518 72.9671V82.2715H91.5874V72.9671V73.1123V71.472C91.5874 70.6447 92.2551 69.9624 93.097 69.9624H93.2422C94.0696 69.9624 94.7518 70.6447 94.7518 71.472V73.1123" fill="white"/>
<path d="M94.7518 72.9671V82.2715H91.5874V72.9671V73.1123V71.472C91.5874 70.6447 92.2551 69.9624 93.097 69.9624H93.2422C94.0696 69.9624 94.7518 70.6447 94.7518 71.472V73.1123" stroke="#001F3A" stroke-width="0.488" stroke-miterlimit="10" stroke-linecap="round" stroke-linejoin="round"/>
<path d="M65.3149 81.3715H83.1399" stroke="#001F3A" stroke-width="0.488" stroke-miterlimit="10" stroke-linecap="round" stroke-linejoin="round"/>
<path d="M65.3149 77.583H83.1399" stroke="#001F3A" stroke-width="0.488" stroke-miterlimit="10" stroke-linecap="round" stroke-linejoin="round"/>
<path d="M65.3149 85.1601H83.1399" stroke="#001F3A" stroke-width="0.488" stroke-miterlimit="10" stroke-linecap="round" stroke-linejoin="round"/>
<path d="M65.3149 88.9631H83.1399" stroke="#001F3A" stroke-width="0.488" stroke-miterlimit="10" stroke-linecap="round" stroke-linejoin="round"/>
<path d="M65.3149 92.7516H83.4447" stroke="#001F3A" stroke-width="0.488" stroke-miterlimit="10" stroke-linecap="round" stroke-linejoin="round"/>
<path d="M65.3149 96.5402H70.4389" stroke="#001F3A" stroke-width="0.488" stroke-miterlimit="10" stroke-linecap="round" stroke-linejoin="round"/>
<path d="M78.3208 96.5402H83.4447" stroke="#001F3A" stroke-width="0.488" stroke-miterlimit="10" stroke-linecap="round" stroke-linejoin="round"/>
<path d="M66.4182 71.3124H63.0942V67.9593H66.4182C66.9118 67.9593 67.3182 68.3657 67.3182 68.8593V70.3979C67.3327 70.9059 66.9263 71.3124 66.4182 71.3124Z" fill="white"/>
<path d="M66.4182 71.3124H63.0942V67.9593H66.4182C66.9118 67.9593 67.3182 68.3657 67.3182 68.8593V70.3979C67.3327 70.9059 66.9263 71.3124 66.4182 71.3124Z" stroke="#001F3A" stroke-width="0.488" stroke-miterlimit="10" stroke-linecap="round" stroke-linejoin="round"/>
<path d="M63.0942 74.6654V71.3123H66.3747C66.8972 71.3123 67.3182 71.7043 67.3182 72.1833V74.6654" fill="white"/>
<path d="M63.0942 74.6654V71.3123H66.3747C66.8972 71.3123 67.3182 71.7043 67.3182 72.1833V74.6654" stroke="#001F3A" stroke-width="0.488" stroke-miterlimit="10" stroke-linecap="round" stroke-linejoin="round"/>
<path d="M73.4725 67.9593H69.2485V74.6654H73.4725" fill="white"/>
<path d="M73.4725 67.9593H69.2485V74.6654H73.4725" stroke="#001F3A" stroke-width="0.488" stroke-miterlimit="10" stroke-linecap="round" stroke-linejoin="round"/>
<path d="M69.2485 71.3123H71.9339" stroke="#001F3A" stroke-width="0.488" stroke-miterlimit="10" stroke-linecap="round" stroke-linejoin="round"/>
<path d="M75.2581 74.6654V67.9593L79.7578 74.6654V67.9593" fill="white"/>
<path d="M75.2581 74.6654V67.9593L79.7578 74.6654V67.9593" stroke="#001F3A" stroke-width="0.488" stroke-miterlimit="10" stroke-linecap="round" stroke-linejoin="round"/>
<path d="M83.6624 74.6654V67.9593" stroke="#001F3A" stroke-width="0.488" stroke-miterlimit="10" stroke-linecap="round" stroke-linejoin="round"/>
<path d="M81.2095 67.9593H86.1157" stroke="#001F3A" stroke-width="0.488" stroke-miterlimit="10" stroke-linecap="round" stroke-linejoin="round"/>
<path d="M49.4495 48.5957C49.4495 55.8099 43.5998 61.6596 36.3856 61.6596C29.1715 61.6596 23.3218 55.8099 23.3218 48.5957C23.3218 41.3816 29.1715 35.5319 36.3856 35.5319C43.5998 35.5319 49.4495 41.3816 49.4495 48.5957Z" fill="white"/>
<path d="M36.3856 61.6596C43.6006 61.6596 49.4495 55.8107 49.4495 48.5957C49.4495 41.3808 43.6006 35.5319 36.3856 35.5319C29.1707 35.5319 23.3218 41.3808 23.3218 48.5957C23.3218 55.8107 29.1707 61.6596 36.3856 61.6596Z" stroke="#001F3A" stroke-width="0.488" stroke-miterlimit="10" stroke-linecap="round" stroke-linejoin="round"/>
<path d="M53.717 71.5736V89.5728C53.717 90.6904 52.8026 91.6049 51.6849 91.6049H22.9008C21.7831 91.6049 20.8687 90.6904 20.8687 89.5728V71.5736" fill="white"/>
<path d="M53.717 71.5736V89.5728C53.717 90.6904 52.8026 91.6049 51.6849 91.6049H22.9008C21.7831 91.6049 20.8687 90.6904 20.8687 89.5728V71.5736" stroke="#001F3A" stroke-width="0.488" stroke-miterlimit="10" stroke-linecap="round" stroke-linejoin="round"/>
<path d="M20.8833 71.5737V68.7867C20.8833 67.669 21.7978 66.7545 22.9155 66.7545H51.6995C52.8172 66.7545 53.7317 67.669 53.7317 68.7867V71.5737" fill="white"/>
<path d="M20.8833 71.5737V68.7867C20.8833 67.669 21.7978 66.7545 22.9155 66.7545H51.6995C52.8172 66.7545 53.7317 67.669 53.7317 68.7867V71.5737" stroke="#001F3A" stroke-width="0.488" stroke-miterlimit="10" stroke-linecap="round" stroke-linejoin="round"/>
<path d="M25.3833 76.175L27.6332 78.3814L31.1169 74.9122" fill="white"/>
<path d="M25.3833 76.175L27.6332 78.3814L31.1169 74.9122" stroke="#001F3A" stroke-width="0.488" stroke-miterlimit="10" stroke-linecap="round" stroke-linejoin="round"/>
<path d="M42.0178 76.1315L44.2822 78.3524L47.7514 74.8687" fill="white"/>
<path d="M42.0178 76.1315L44.2822 78.3524L47.7514 74.8687" stroke="#001F3A" stroke-width="0.488" stroke-miterlimit="10" stroke-linecap="round" stroke-linejoin="round"/>
<path d="M25.3833 84.8698L27.6477 87.0761L31.1169 83.5924" fill="white"/>
<path d="M25.3833 84.8698L27.6477 87.0761L31.1169 83.5924" stroke="#001F3A" stroke-width="0.488" stroke-miterlimit="10" stroke-linecap="round" stroke-linejoin="round"/>
<path d="M42.0322 84.8262L44.2966 87.0326L47.7658 83.5489" fill="white"/>
<path d="M42.0322 84.8262L44.2966 87.0326L47.7658 83.5489" stroke="#001F3A" stroke-width="0.488" stroke-miterlimit="10" stroke-linecap="round" stroke-linejoin="round"/>
<path d="M21.0576 71.5736H53.7173" stroke="#001F3A" stroke-width="0.488" stroke-miterlimit="10" stroke-linecap="round" stroke-linejoin="round"/>
<path d="M28.1118 69.4109V66.3917C28.1118 65.1433 29.0553 64.1127 30.2021 64.1127C31.3633 64.1127 32.3068 65.1433 32.3068 66.3917V66.769" fill="white"/>
<path d="M28.1118 69.4109V66.3917C28.1118 65.1433 29.0553 64.1127 30.2021 64.1127C31.3633 64.1127 32.3068 65.1433 32.3068 66.3917V66.769" stroke="#001F3A" stroke-width="0.488" stroke-miterlimit="10" stroke-linecap="round" stroke-linejoin="round"/>
<path d="M26.0073 69.4108H30.2168" stroke="#001F3A" stroke-width="0.488" stroke-miterlimit="10" stroke-linecap="round" stroke-linejoin="round"/>
<path d="M45.6758 69.4109V66.3917C45.6758 65.1433 46.6192 64.1127 47.766 64.1127C48.9272 64.1127 49.8707 65.1433 49.8707 66.3917V66.769" fill="white"/>
<path d="M45.6758 69.4109V66.3917C45.6758 65.1433 46.6192 64.1127 47.766 64.1127C48.9272 64.1127 49.8707 65.1433 49.8707 66.3917V66.769" stroke="#001F3A" stroke-width="0.488" stroke-miterlimit="10" stroke-linecap="round" stroke-linejoin="round"/>
<path d="M43.5706 69.4108H47.7655" stroke="#001F3A" stroke-width="0.488" stroke-miterlimit="10" stroke-linecap="round" stroke-linejoin="round"/>
<path d="M31.8421 39.8575C31.8276 39.8139 31.7841 39.7994 31.7406 39.8139C28.5472 41.4687 26.3844 44.7782 26.3844 48.5813C26.3844 54.0536 30.8696 58.4808 36.3855 58.4808V61.6451C36.3855 61.6887 36.3565 61.7177 36.3129 61.7177C29.0117 61.6742 23.1184 55.8099 23.1184 48.5813C23.1184 43.5154 26.0215 39.1027 30.2745 36.9254C30.4487 36.8383 30.6229 36.7512 30.7971 36.6641C30.8261 36.6496 30.8406 36.6205 30.8406 36.5915L30.6664 36.0254L30.3471 34.9803C30.26 34.719 30.5793 34.5013 30.7971 34.6755L32.1035 35.7351L33.9759 37.2447C34.063 37.3173 34.1066 37.4334 34.063 37.5495L33.3373 39.843L32.8292 41.4397C32.7421 41.7009 32.3647 41.7009 32.2776 41.4397L31.9438 40.3365L31.8421 39.8575Z" fill="white"/>
<path d="M31.8421 39.8575C31.8276 39.8139 31.7841 39.7994 31.7406 39.8139C28.5472 41.4687 26.3844 44.7782 26.3844 48.5813C26.3844 54.0536 30.8696 58.4808 36.3855 58.4808V61.6451C36.3855 61.6887 36.3565 61.7177 36.3129 61.7177C29.0117 61.6742 23.1184 55.8099 23.1184 48.5813C23.1184 43.5154 26.0215 39.1027 30.2745 36.9254C30.4487 36.8383 30.6229 36.7512 30.7971 36.6641C30.8261 36.6496 30.8406 36.6205 30.8406 36.5915L30.6664 36.0254L30.3471 34.9803C30.26 34.719 30.5793 34.5013 30.7971 34.6755L32.1035 35.7351L33.9759 37.2447C34.063 37.3173 34.1066 37.4334 34.063 37.5495L33.3373 39.843L32.8292 41.4397C32.7421 41.7009 32.3647 41.7009 32.2776 41.4397L31.9438 40.3365L31.8421 39.8575Z" stroke="#001F3A" stroke-width="0.488" stroke-miterlimit="10" stroke-linecap="round" stroke-linejoin="round"/>
<path d="M40.9288 57.3195C40.9433 57.363 40.9869 57.3775 41.0304 57.363C44.2238 55.7083 46.3866 52.3987 46.3866 48.5957C46.3866 43.1234 41.9014 38.6962 36.3855 38.6962V35.5318C36.3855 35.4883 36.4146 35.4593 36.4581 35.4593C43.7594 35.5028 49.6526 41.367 49.6526 48.5957C49.6526 53.6616 46.7495 58.0743 42.4965 60.2516C42.3223 60.3387 42.1481 60.4258 41.9739 60.5129C41.9449 60.5274 41.9304 60.5564 41.9304 60.5854L42.1046 61.1515L42.4239 62.1967C42.4965 62.4579 42.1917 62.6757 41.9739 62.5015L40.6676 61.4419L38.7951 59.9322C38.708 59.8597 38.6644 59.7435 38.708 59.6274L39.4337 57.334L39.9418 55.7373C40.0289 55.476 40.4063 55.476 40.4934 55.7373L40.8272 56.8405L40.9288 57.3195Z" fill="white"/>
<path d="M40.9288 57.3195C40.9433 57.363 40.9869 57.3775 41.0304 57.363C44.2238 55.7083 46.3866 52.3987 46.3866 48.5957C46.3866 43.1234 41.9014 38.6962 36.3855 38.6962V35.5318C36.3855 35.4883 36.4146 35.4593 36.4581 35.4593C43.7594 35.5028 49.6526 41.367 49.6526 48.5957C49.6526 53.6616 46.7495 58.0743 42.4965 60.2516C42.3223 60.3387 42.1481 60.4258 41.9739 60.5129C41.9449 60.5274 41.9304 60.5564 41.9304 60.5854L42.1046 61.1515L42.4239 62.1967C42.4965 62.4579 42.1917 62.6757 41.9739 62.5015L40.6676 61.4419L38.7951 59.9322C38.708 59.8597 38.6644 59.7435 38.708 59.6274L39.4337 57.334L39.9418 55.7373C40.0289 55.476 40.4063 55.476 40.4934 55.7373L40.8272 56.8405L40.9288 57.3195Z" stroke="#001F3A" stroke-width="0.488" stroke-miterlimit="10" stroke-linecap="round" stroke-linejoin="round"/>
<path d="M39.5789 49.336L36.3855 49.3215L36.4 42.6735" fill="white"/>
<path d="M39.5789 49.336L36.3855 49.3215L36.4 42.6735" stroke="#001F3A" stroke-width="0.488" stroke-miterlimit="10" stroke-linecap="round" stroke-linejoin="round"/>
</svg>
