<svg width="125" height="125" viewBox="0 0 125 125" fill="none" xmlns="http://www.w3.org/2000/svg">
<path d="M7.49974 56.9711C10.6496 26.4742 37.924 4.32372 68.4209 7.47357C98.9178 10.6234 121.068 37.8979 117.919 68.3948C114.769 98.8917 87.4797 121.042 56.9973 117.892C26.5004 114.743 4.33538 87.468 7.49974 56.9711Z" fill="#0097C5"/>
<path d="M1.33095 56.347C4.84368 22.4535 35.1518 -2.17918 69.0453 1.33355C102.939 4.84628 127.572 35.1545 124.059 69.048C120.546 102.941 90.2379 127.574 56.3444 124.061C22.4654 120.549 -2.16726 90.226 1.33095 56.347Z" stroke="#00B49D" stroke-width="1.252" stroke-miterlimit="10" stroke-dasharray="6.17 6.17"/>
<path d="M48.7237 51.1505V67.5529H30.0569V51.1505L39.4048 42.717L48.7237 51.1505Z" fill="white"/>
<path d="M48.7237 51.1505V67.5529H30.0569V51.1505L39.4048 42.717L48.7237 51.1505Z" stroke="#001F3A" stroke-width="0.484" stroke-miterlimit="10" stroke-linecap="round" stroke-linejoin="round"/>
<path d="M46.5173 45.3008V39.2333H42.932V42.0348L39.3612 38.8124L26.7473 50.236L28.5037 52.4714H28.5327L39.3612 42.688V42.6735L50.2042 52.4714H50.2188L51.9751 50.236L46.5173 45.3008Z" fill="white"/>
<path d="M46.5173 45.3008V39.2333H42.932V42.0348L39.3612 38.8124L26.7473 50.236L28.5037 52.4714H28.5327L39.3612 42.688V42.6735L50.2042 52.4714H50.2188L51.9751 50.236L46.5173 45.3008Z" stroke="#001F3A" stroke-width="0.484" stroke-miterlimit="10" stroke-linecap="round" stroke-linejoin="round"/>
<path d="M36.0662 54.3294H42.6562V51.0053C42.6562 49.2054 41.1901 47.7394 39.3902 47.7394H39.3321C37.5322 47.7394 36.0662 49.2054 36.0662 51.0053V54.3294Z" fill="white"/>
<path d="M36.0662 54.3294H42.6562V51.0053C42.6562 49.2054 41.1901 47.7394 39.3902 47.7394H39.3321C37.5322 47.7394 36.0662 49.2054 36.0662 51.0053V54.3294Z" stroke="#001F3A" stroke-width="0.484" stroke-miterlimit="10" stroke-linecap="round" stroke-linejoin="round"/>
<path d="M35.1373 67.5674H43.6579V62.3564C43.6579 59.5259 41.7709 57.247 39.4339 57.247H39.3468C37.0098 57.247 35.1228 59.5404 35.1228 62.3564V67.5674H35.1373Z" fill="white"/>
<path d="M35.1373 67.5674H43.6579V62.3564C43.6579 59.5259 41.7709 57.247 39.4339 57.247H39.3468C37.0098 57.247 35.1228 59.5404 35.1228 62.3564V67.5674H35.1373Z" stroke="#001F3A" stroke-width="0.484" stroke-miterlimit="10" stroke-linecap="round" stroke-linejoin="round"/>
<path d="M53.5864 60.9629C53.2961 60.9484 52.9767 60.992 52.6429 61.0936C52.5848 61.1081 52.5123 61.1371 52.4397 61.1662C52.4687 57.3631 52.5123 54.6778 52.5849 53.1827C52.6284 52.4134 53.0784 51.9344 53.6009 51.7311L53.5864 60.9629Z" fill="white"/>
<path d="M53.5864 60.9629C53.2961 60.9484 52.9767 60.992 52.6429 61.0936C52.5848 61.1081 52.5123 61.1371 52.4397 61.1662C52.4687 57.3631 52.5123 54.6778 52.5849 53.1827C52.6284 52.4134 53.0784 51.9344 53.6009 51.7311L53.5864 60.9629Z" stroke="#001F3A" stroke-width="0.484" stroke-miterlimit="10" stroke-linecap="round" stroke-linejoin="round"/>
<path d="M44.7467 69.5851C45.8353 68.7287 50.7705 63.7789 51.4963 62.9806C51.8592 62.5887 52.106 62.3564 52.4398 62.1097C52.6721 61.9355 52.8027 61.8774 52.8608 61.8629C53.2382 61.7468 53.543 61.7323 53.8188 61.8048C53.8478 61.8193 53.8623 61.8193 53.8914 61.8193C54.1381 61.9064 54.3558 62.0661 54.5591 62.2984C54.98 62.7919 55.0962 63.5757 54.8639 64.3015C54.7768 64.5628 54.6316 64.824 54.4284 65.0853C54.3849 65.1579 49.9432 70.9786 47.8094 73.0252C47.6497 73.1849 47.6207 73.4462 47.7658 73.6059C47.911 73.78 48.1723 73.78 48.3465 73.6349C50.5238 71.5592 54.8929 65.8256 55.0671 65.5788C55.3284 65.2595 55.5171 64.9111 55.6332 64.5628C55.9671 63.5612 55.7929 62.5016 55.1687 61.7903C54.9365 61.5145 54.6752 61.3113 54.3849 61.1662L54.4139 51.0779C54.4139 51.0779 54.4139 51.0779 54.4139 51.0634C54.4719 49.8151 55.3574 49.0748 56.2138 48.9877C56.359 48.9732 56.4896 48.9732 56.6347 49.0022C57.375 49.1184 58.1008 49.7425 58.217 50.7876C58.217 50.8021 58.217 50.8167 58.217 50.8167C59.7121 58.3937 58.1444 69.3093 58.1299 69.4109C57.8976 70.6447 57.288 71.806 56.4025 72.7204C55.4736 73.693 54.0655 74.9268 52.7011 76.1315C51.7721 76.9589 50.8867 77.7282 50.1319 78.4395C49.4932 79.0346 49.3335 80.3846 49.1884 81.241L49.0868 85.1166H40.871C41.0452 84.2747 40.8855 81.0232 40.9436 79.7459C40.9436 79.7169 40.6823 78.2072 40.6242 77.7137C40.6242 77.7137 40.5662 76.7702 40.5807 76.3057C40.6533 74.9268 40.871 74.3026 41.2049 73.5188C41.9016 71.9221 42.6419 71.2544 44.7467 69.5851Z" fill="white"/>
<path d="M44.7467 69.5851C45.8353 68.7287 50.7705 63.7789 51.4963 62.9806C51.8592 62.5887 52.106 62.3564 52.4398 62.1097C52.6721 61.9355 52.8027 61.8774 52.8608 61.8629C53.2382 61.7468 53.543 61.7323 53.8188 61.8048C53.8478 61.8193 53.8623 61.8193 53.8914 61.8193C54.1381 61.9064 54.3558 62.0661 54.5591 62.2984C54.98 62.7919 55.0962 63.5757 54.8639 64.3015C54.7768 64.5628 54.6316 64.824 54.4284 65.0853C54.3849 65.1579 49.9432 70.9786 47.8094 73.0252C47.6497 73.1849 47.6207 73.4462 47.7658 73.6059C47.911 73.78 48.1723 73.78 48.3465 73.6349C50.5238 71.5592 54.8929 65.8256 55.0671 65.5788C55.3284 65.2595 55.5171 64.9111 55.6332 64.5628C55.9671 63.5612 55.7929 62.5016 55.1687 61.7903C54.9365 61.5145 54.6752 61.3113 54.3849 61.1662L54.4139 51.0779C54.4139 51.0779 54.4139 51.0779 54.4139 51.0634C54.4719 49.8151 55.3574 49.0748 56.2138 48.9877C56.359 48.9732 56.4896 48.9732 56.6347 49.0022C57.375 49.1184 58.1008 49.7425 58.217 50.7876C58.217 50.8021 58.217 50.8167 58.217 50.8167C59.7121 58.3937 58.1444 69.3093 58.1299 69.4109C57.8976 70.6447 57.288 71.806 56.4025 72.7204C55.4736 73.693 54.0655 74.9268 52.7011 76.1315C51.7721 76.9589 50.8867 77.7282 50.1319 78.4395C49.4932 79.0346 49.3335 80.3846 49.1884 81.241L49.0868 85.1166H40.871C41.0452 84.2747 40.8855 81.0232 40.9436 79.7459C40.9436 79.7169 40.6823 78.2072 40.6242 77.7137C40.6242 77.7137 40.5662 76.7702 40.5807 76.3057C40.6533 74.9268 40.871 74.3026 41.2049 73.5188C41.9016 71.9221 42.6419 71.2544 44.7467 69.5851Z" stroke="#001F3A" stroke-width="0.484" stroke-miterlimit="10" stroke-linecap="round" stroke-linejoin="round"/>
<path d="M54.0073 51.2231C53.1218 51.3102 52.2364 51.9924 52.1784 53.1681C52.0913 55.0552 52.0477 58.5969 52.0332 61.8629" fill="white"/>
<path d="M54.0073 51.2231C53.1218 51.3102 52.2364 51.9924 52.1784 53.1681C52.0913 55.0552 52.0477 58.5969 52.0332 61.8629" stroke="#001F3A" stroke-width="0.484" stroke-miterlimit="10" stroke-linecap="round" stroke-linejoin="round"/>
<path d="M40.3922 85.4649C40.3922 85.4649 40.4648 81.3716 40.5519 79.7458C40.5519 79.7313 40.2906 78.2507 40.2325 77.7863C40.2325 77.7863 40.16 76.8137 40.189 76.3057C40.2616 74.9122 40.4793 74.2445 40.8422 73.3736C41.568 71.6462 42.3953 70.9205 44.4855 69.2657C45.5452 68.4383 50.4078 63.5611 51.1916 62.7047C51.569 62.2983 51.8303 62.0515 52.1932 61.7758C52.3819 61.6306 52.5706 61.5145 52.7448 61.4709C53.5722 61.2242 54.269 61.3548 54.8641 62.037C55.3576 62.6176 55.5318 63.5321 55.2415 64.4176C55.1253 64.7514 54.9511 65.0417 54.7334 65.3175C54.7334 65.3175 50.2337 71.2398 48.0564 73.3155" fill="white"/>
<path d="M40.3922 85.4649C40.3922 85.4649 40.4648 81.3716 40.5519 79.7458C40.5519 79.7313 40.2906 78.2507 40.2325 77.7863C40.2325 77.7863 40.16 76.8137 40.189 76.3057C40.2616 74.9122 40.4793 74.2445 40.8422 73.3736C41.568 71.6462 42.3953 70.9205 44.4855 69.2657C45.5452 68.4383 50.4078 63.5611 51.1916 62.7047C51.569 62.2983 51.8303 62.0515 52.1932 61.7758C52.3819 61.6306 52.5706 61.5145 52.7448 61.4709C53.5722 61.2242 54.269 61.3548 54.8641 62.037C55.3576 62.6176 55.5318 63.5321 55.2415 64.4176C55.1253 64.7514 54.9511 65.0417 54.7334 65.3175C54.7334 65.3175 50.2337 71.2398 48.0564 73.3155" stroke="#001F3A" stroke-width="0.484" stroke-miterlimit="10" stroke-linecap="round" stroke-linejoin="round"/>
<path d="M53.9929 61.4419L54.0219 51.0489V51.0634C54.08 49.6699 55.0815 48.7119 56.1847 48.5958C57.2734 48.4797 58.4636 49.2925 58.6378 50.7586C60.1619 58.4953 58.5507 69.4835 58.5507 69.4835C58.2895 70.8189 57.6653 72.0382 56.7218 73.0107C55.1542 74.6364 52.3091 76.9879 50.4366 78.7443C49.856 79.2814 49.7399 80.5442 49.6238 81.3135L49.4641 85.5956" fill="white"/>
<path d="M53.9929 61.4419L54.0219 51.0489V51.0634C54.08 49.6699 55.0815 48.7119 56.1847 48.5958C57.2734 48.4797 58.4636 49.2925 58.6378 50.7586C60.1619 58.4953 58.5507 69.4835 58.5507 69.4835C58.2895 70.8189 57.6653 72.0382 56.7218 73.0107C55.1542 74.6364 52.3091 76.9879 50.4366 78.7443C49.856 79.2814 49.7399 80.5442 49.6238 81.3135L49.4641 85.5956" stroke="#001F3A" stroke-width="0.484" stroke-miterlimit="10" stroke-linecap="round" stroke-linejoin="round"/>
<path d="M24.9623 60.9629C25.2526 60.9484 25.5719 60.992 25.9058 61.0936C25.9638 61.1081 26.0364 61.1371 26.109 61.1662C26.0799 57.3631 26.0364 54.6778 25.9639 53.1827C25.9203 52.4134 25.4703 51.9344 24.9478 51.7311L24.9623 60.9629Z" fill="white"/>
<path d="M24.9623 60.9629C25.2526 60.9484 25.5719 60.992 25.9058 61.0936C25.9638 61.1081 26.0364 61.1371 26.109 61.1662C26.0799 57.3631 26.0364 54.6778 25.9639 53.1827C25.9203 52.4134 25.4703 51.9344 24.9478 51.7311L24.9623 60.9629Z" stroke="#001F3A" stroke-width="0.484" stroke-miterlimit="10" stroke-linecap="round" stroke-linejoin="round"/>
<path d="M33.8019 69.5851C32.7133 68.7287 27.778 63.7789 27.0523 62.9806C26.6894 62.5887 26.4426 62.3564 26.1087 62.1097C25.8765 61.9355 25.7459 61.8774 25.6878 61.8629C25.3104 61.7468 25.0056 61.7323 24.7298 61.8048C24.7008 61.8193 24.6862 61.8193 24.6572 61.8193C24.4104 61.9064 24.1927 62.0661 23.9895 62.2984C23.5686 62.7919 23.4524 63.5757 23.6847 64.3015C23.7718 64.5628 23.9169 64.824 24.1201 65.0853C24.1637 65.1579 28.6345 71.0221 30.7682 73.0543C30.9279 73.2139 30.9424 73.4607 30.7827 73.6204C30.6375 73.78 30.3763 73.7946 30.2166 73.6349C28.0393 71.5592 23.6702 65.8256 23.496 65.5788C23.2347 65.2595 23.046 64.9111 22.9299 64.5628C22.596 63.5612 22.7702 62.5016 23.3944 61.7903C23.6266 61.5145 23.9024 61.2968 24.1782 61.1662L24.1492 51.0779C24.1492 51.0779 24.1492 51.0779 24.1492 51.0634C24.0911 49.8151 23.2057 49.0748 22.3493 48.9877C22.2041 48.9732 22.0735 48.9732 21.9283 49.0022C21.1881 49.1184 20.4622 49.7425 20.3461 50.7876C20.3461 50.8021 20.3461 50.8167 20.3461 50.8167C18.851 58.3937 20.4187 69.3093 20.4333 69.4109C20.6655 70.6447 21.2751 71.8059 22.1605 72.7204C23.0895 73.693 24.4976 74.9268 25.862 76.1315C26.791 76.9589 27.6764 77.7282 28.4312 78.4395C29.0699 79.0346 29.2296 80.3846 29.3747 81.241L29.4763 85.1311H37.7066C37.5324 84.3037 37.692 81.0378 37.634 79.7604C37.634 79.7314 37.8953 78.2218 37.9533 77.7282C37.9533 77.7282 38.0114 76.7847 37.9969 76.3202C37.9243 74.9413 37.7066 74.3171 37.3727 73.5333C36.6469 71.9221 35.9067 71.2544 33.8019 69.5851Z" fill="white"/>
<path d="M33.8019 69.5851C32.7133 68.7287 27.778 63.7789 27.0523 62.9806C26.6894 62.5887 26.4426 62.3564 26.1087 62.1097C25.8765 61.9355 25.7459 61.8774 25.6878 61.8629C25.3104 61.7468 25.0056 61.7323 24.7298 61.8048C24.7008 61.8193 24.6862 61.8193 24.6572 61.8193C24.4104 61.9064 24.1927 62.0661 23.9895 62.2984C23.5686 62.7919 23.4524 63.5757 23.6847 64.3015C23.7718 64.5628 23.9169 64.824 24.1201 65.0853C24.1637 65.1579 28.6345 71.0221 30.7682 73.0543C30.9279 73.2139 30.9424 73.4607 30.7827 73.6204C30.6375 73.78 30.3763 73.7946 30.2166 73.6349C28.0393 71.5592 23.6702 65.8256 23.496 65.5788C23.2347 65.2595 23.046 64.9111 22.9299 64.5628C22.596 63.5612 22.7702 62.5016 23.3944 61.7903C23.6266 61.5145 23.9024 61.2968 24.1782 61.1662L24.1492 51.0779C24.1492 51.0779 24.1492 51.0779 24.1492 51.0634C24.0911 49.8151 23.2057 49.0748 22.3493 48.9877C22.2041 48.9732 22.0735 48.9732 21.9283 49.0022C21.1881 49.1184 20.4622 49.7425 20.3461 50.7876C20.3461 50.8021 20.3461 50.8167 20.3461 50.8167C18.851 58.3937 20.4187 69.3093 20.4333 69.4109C20.6655 70.6447 21.2751 71.8059 22.1605 72.7204C23.0895 73.693 24.4976 74.9268 25.862 76.1315C26.791 76.9589 27.6764 77.7282 28.4312 78.4395C29.0699 79.0346 29.2296 80.3846 29.3747 81.241L29.4763 85.1311H37.7066C37.5324 84.3037 37.692 81.0378 37.634 79.7604C37.634 79.7314 37.8953 78.2218 37.9533 77.7282C37.9533 77.7282 38.0114 76.7847 37.9969 76.3202C37.9243 74.9413 37.7066 74.3171 37.3727 73.5333C36.6469 71.9221 35.9067 71.2544 33.8019 69.5851Z" stroke="#001F3A" stroke-width="0.484" stroke-miterlimit="10" stroke-linecap="round" stroke-linejoin="round"/>
<path d="M24.541 51.2231C25.4265 51.3102 26.3119 51.9924 26.37 53.1681C26.4571 55.0552 26.5006 58.5969 26.5151 61.8629" fill="white"/>
<path d="M24.541 51.2231C25.4265 51.3102 26.3119 51.9924 26.37 53.1681C26.4571 55.0552 26.5006 58.5969 26.5151 61.8629" stroke="#001F3A" stroke-width="0.484" stroke-miterlimit="10" stroke-linecap="round" stroke-linejoin="round"/>
<path d="M38.1567 85.4649C38.1567 85.4649 38.0841 81.3716 37.997 79.7458C37.997 79.7313 38.2582 78.2507 38.3163 77.7863C38.3163 77.7863 38.3889 76.8137 38.3599 76.3057C38.2873 74.9122 38.0696 74.2445 37.7067 73.3736C36.9809 71.6462 36.1535 70.9205 34.0633 69.2657C33.0037 68.4383 28.141 63.5611 27.3572 62.7047C26.9798 62.2983 26.7185 62.0515 26.3556 61.7758C26.1669 61.6306 25.9782 61.5145 25.804 61.4709C24.9766 61.2242 24.2799 61.3548 23.6848 62.037C23.1913 62.6176 23.0171 63.5321 23.3074 64.4176C23.4235 64.7514 23.5977 65.0417 23.8154 65.3175C23.8154 65.3175 28.3152 71.2398 30.4925 73.3155" fill="white"/>
<path d="M38.1567 85.4649C38.1567 85.4649 38.0841 81.3716 37.997 79.7458C37.997 79.7313 38.2582 78.2507 38.3163 77.7863C38.3163 77.7863 38.3889 76.8137 38.3599 76.3057C38.2873 74.9122 38.0696 74.2445 37.7067 73.3736C36.9809 71.6462 36.1535 70.9205 34.0633 69.2657C33.0037 68.4383 28.141 63.5611 27.3572 62.7047C26.9798 62.2983 26.7185 62.0515 26.3556 61.7758C26.1669 61.6306 25.9782 61.5145 25.804 61.4709C24.9766 61.2242 24.2799 61.3548 23.6848 62.037C23.1913 62.6176 23.0171 63.5321 23.3074 64.4176C23.4235 64.7514 23.5977 65.0417 23.8154 65.3175C23.8154 65.3175 28.3152 71.2398 30.4925 73.3155" stroke="#001F3A" stroke-width="0.484" stroke-miterlimit="10" stroke-linecap="round" stroke-linejoin="round"/>
<path d="M24.5556 61.4419L24.5265 51.0489V51.0634C24.4685 49.6699 23.4669 48.7119 22.3638 48.5958C21.2751 48.4797 20.0848 49.2925 19.9106 50.7586C18.3865 58.4953 19.9977 69.4835 19.9977 69.4835C20.259 70.8189 20.8832 72.0382 21.8267 73.0107C23.3944 74.6364 26.2394 76.9879 28.1118 78.7443C28.6925 79.2814 28.8086 80.5442 28.9247 81.3135L29.0844 85.5956" fill="white"/>
<path d="M24.5556 61.4419L24.5265 51.0489V51.0634C24.4685 49.6699 23.4669 48.7119 22.3638 48.5958C21.2751 48.4797 20.0848 49.2925 19.9106 50.7586C18.3865 58.4953 19.9977 69.4835 19.9977 69.4835C20.259 70.8189 20.8832 72.0382 21.8267 73.0107C23.3944 74.6364 26.2394 76.9879 28.1118 78.7443C28.6925 79.2814 28.8086 80.5442 28.9247 81.3135L29.0844 85.5956" stroke="#001F3A" stroke-width="0.484" stroke-miterlimit="10" stroke-linecap="round" stroke-linejoin="round"/>
<path d="M98.9618 32.9482L93.9685 36.7512L93.5185 37.0705C93.5185 37.0705 93.7508 38.5511 92.7928 40.4381L78.7128 52.1956L76.5209 53.8213C75.0259 54.9245 73.1388 54.8955 72.3114 53.7633C71.4841 52.6166 72.0357 50.7731 73.5308 49.6699L71.7599 50.7876C70.4681 51.7166 68.7552 51.5279 67.9278 50.3812C67.1005 49.2345 67.4923 47.5507 68.7697 46.6217L77.3047 40.4962L76.6226 40.9752L67.0424 47.841C65.9538 48.6248 64.357 48.2764 63.4861 47.0572C62.6152 45.8524 62.8039 44.2266 63.8925 43.4428L67.4924 40.8591L73.4582 36.577L70.1051 38.9576L63.2974 43.8492C62.2668 44.5895 60.7137 44.1831 59.8427 42.9638C58.9718 41.73 59.1025 40.1188 60.1331 39.3785L63.5442 36.9254L69.1907 32.8611L71.2083 31.4676L74.4162 29.3629L84.4319 26.5469L84.7657 26.3001L85.5931 25.6759L89.5558 22.6567" fill="white"/>
<path d="M98.9618 32.9482L93.9685 36.7512L93.5185 37.0705C93.5185 37.0705 93.7508 38.5511 92.7928 40.4381L78.7128 52.1956L76.5209 53.8213C75.0259 54.9245 73.1388 54.8955 72.3114 53.7633C71.4841 52.6166 72.0357 50.7731 73.5308 49.6699L71.7599 50.7876C70.4681 51.7166 68.7552 51.5279 67.9278 50.3812C67.1005 49.2345 67.4923 47.5507 68.7697 46.6217L77.3047 40.4962L76.6226 40.9752L67.0424 47.841C65.9538 48.6248 64.357 48.2764 63.4861 47.0572C62.6152 45.8524 62.8039 44.2266 63.8925 43.4428L67.4924 40.8591L73.4582 36.577L70.1051 38.9576L63.2974 43.8492C62.2668 44.5895 60.7137 44.1831 59.8427 42.9638C58.9718 41.73 59.1025 40.1188 60.1331 39.3785L63.5442 36.9254L69.1907 32.8611L71.2083 31.4676L74.4162 29.3629L84.4319 26.5469L84.7657 26.3001L85.5931 25.6759L89.5558 22.6567" stroke="#001F3A" stroke-width="0.484" stroke-miterlimit="10" stroke-linecap="round" stroke-linejoin="round"/>
<path d="M47.1562 23.8615L58.8121 36.7512L59.2621 37.0705C59.2621 37.0705 59.0879 38.2463 59.7121 39.8285L74.4307 29.3774L85.3173 33.1659C86.8269 33.6885 88.4816 32.8901 89.0042 31.3805C89.5267 29.8709 88.7284 28.2161 87.2188 27.6936L76.3322 23.9051C76.3322 23.9051 72.0357 22.3519 67.9859 26.3291H67.9713L67.144 25.705L63.2974 21.4084" fill="white"/>
<path d="M47.1562 23.8615L58.8121 36.7512L59.2621 37.0705C59.2621 37.0705 59.0879 38.2463 59.7121 39.8285L74.4307 29.3774L85.3173 33.1659C86.8269 33.6885 88.4816 32.8901 89.0042 31.3805C89.5267 29.8709 88.7284 28.2161 87.2188 27.6936L76.3322 23.9051C76.3322 23.9051 72.0357 22.3519 67.9859 26.3291H67.9713L67.144 25.705L63.2974 21.4084" stroke="#001F3A" stroke-width="0.484" stroke-miterlimit="10" stroke-linecap="round" stroke-linejoin="round"/>
<path d="M68.0001 26.3146C67.3759 26.9388 66.7517 27.6936 66.1421 28.6081Z" fill="white"/>
<path d="M68.0001 26.3146C67.3759 26.9388 66.7517 27.6936 66.1421 28.6081" stroke="#001F3A" stroke-width="0.484" stroke-miterlimit="10" stroke-linecap="round" stroke-linejoin="round"/>
<path d="M73.879 46.0265L73.821 46.1136C73.1533 47.0571 73.371 48.3635 74.3145 49.0457L80.2948 53.3132C81.2383 53.981 82.5447 53.7632 83.227 52.8197L83.285 52.7326C83.9527 51.7891 83.735 50.4827 82.7915 49.8005L76.8112 45.533C75.8677 44.8798 74.5467 45.0975 73.879 46.0265Z" fill="white"/>
<path d="M73.879 46.0265L73.821 46.1136C73.1533 47.0571 73.371 48.3635 74.3145 49.0457L80.2948 53.3132C81.2383 53.981 82.5447 53.7632 83.227 52.8197L83.285 52.7326C83.9527 51.7891 83.735 50.4827 82.7915 49.8005L76.8112 45.533C75.8677 44.8798 74.5467 45.0975 73.879 46.0265Z" stroke="#001F3A" stroke-width="0.484" stroke-miterlimit="10" stroke-linecap="round" stroke-linejoin="round"/>
<path d="M77.087 43.138C76.4048 44.096 76.6225 45.4459 77.5805 46.1427L83.9818 50.715C84.9398 51.3972 86.2898 51.1795 86.9865 50.2215C87.6688 49.2635 87.451 47.9135 86.493 47.2168L80.0917 42.6444C79.1337 41.9477 77.7837 42.1654 77.087 43.138Z" fill="white"/>
<path d="M77.087 43.138C76.4048 44.096 76.6225 45.4459 77.5805 46.1427L83.9818 50.715C84.9398 51.3972 86.2898 51.1795 86.9865 50.2215C87.6688 49.2635 87.451 47.9135 86.493 47.2168L80.0917 42.6444C79.1337 41.9477 77.7837 42.1654 77.087 43.138Z" stroke="#001F3A" stroke-width="0.484" stroke-miterlimit="10" stroke-linecap="round" stroke-linejoin="round"/>
<path d="M83.2995 39.3494C82.4286 38.7253 81.1222 39.0591 80.3964 40.0752C79.6706 41.0913 79.7867 42.4267 80.6577 43.0509L88.2783 48.4942C89.1492 49.1183 90.4411 48.7845 91.1669 47.7684C91.8927 46.7523 91.7765 45.4169 90.9201 44.7927L88.046 42.7461L83.2995 39.3494Z" fill="white"/>
<path d="M83.2995 39.3494C82.4286 38.7253 81.1222 39.0591 80.3964 40.0752C79.6706 41.0913 79.7867 42.4267 80.6577 43.0509L88.2783 48.4942C89.1492 49.1183 90.4411 48.7845 91.1669 47.7684C91.8927 46.7523 91.7765 45.4169 90.9201 44.7927L88.046 42.7461L83.2995 39.3494Z" stroke="#001F3A" stroke-width="0.484" stroke-miterlimit="10" stroke-linecap="round" stroke-linejoin="round"/>
<path d="M86.8849 36.2141C86.0139 35.59 84.7075 35.9383 83.9818 36.9689C83.256 37.9995 83.3576 39.364 84.2285 39.9736L91.8491 45.4314C92.72 46.0556 94.0264 45.7072 94.7522 44.6766C95.478 43.646 95.3764 42.2816 94.5055 41.6719L91.6313 39.6252L86.8849 36.2141Z" fill="white"/>
<path d="M86.8849 36.2141C86.0139 35.59 84.7075 35.9383 83.9818 36.9689C83.256 37.9995 83.3576 39.364 84.2285 39.9736L91.8491 45.4314C92.72 46.0556 94.0264 45.7072 94.7522 44.6766C95.478 43.646 95.3764 42.2816 94.5055 41.6719L91.6313 39.6252L86.8849 36.2141Z" stroke="#001F3A" stroke-width="0.484" stroke-miterlimit="10" stroke-linecap="round" stroke-linejoin="round"/>
<path d="M90.1942 78.8604C90.1942 78.8604 90.1507 68.0174 90.0491 66.8126C89.6427 62.037 87.0444 58.5388 82.2398 58.5388C77.4497 58.5388 74.837 62.037 74.4305 66.8126C74.3289 68.0174 74.2854 78.8604 74.2854 78.8604" fill="white"/>
<path d="M90.1942 78.8604C90.1942 78.8604 90.1507 68.0174 90.0491 66.8126C89.6427 62.037 87.0444 58.5388 82.2398 58.5388C77.4497 58.5388 74.837 62.037 74.4305 66.8126C74.3289 68.0174 74.2854 78.8604 74.2854 78.8604" stroke="#001F3A" stroke-width="0.484" stroke-miterlimit="10" stroke-linecap="round" stroke-linejoin="round"/>
<path d="M83.1981 99.8062H94.0412C95.6233 99.8062 96.9007 98.4853 96.8281 96.9031L96.3201 83.6505C96.1895 80.1523 93.3009 77.3799 89.8027 77.3799H86.377C86.1447 77.3799 85.9125 77.4234 85.6948 77.5105C84.5916 77.9024 83.4449 78.0911 82.2982 78.1056C82.2836 78.1056 82.2837 78.1056 82.2692 78.1056C81.1079 78.1056 79.9466 77.9024 78.8435 77.5105C78.6257 77.4234 78.3935 77.3799 78.1468 77.3799H74.7502C71.252 77.3799 68.3779 80.1523 68.2327 83.6505L68.1892 98.1224" fill="white"/>
<path d="M83.1981 99.8062H94.0412C95.6233 99.8062 96.9007 98.4853 96.8281 96.9031L96.3201 83.6505C96.1895 80.1523 93.3009 77.3799 89.8027 77.3799H86.377C86.1447 77.3799 85.9125 77.4234 85.6948 77.5105C84.5916 77.9024 83.4449 78.0911 82.2982 78.1056C82.2836 78.1056 82.2837 78.1056 82.2692 78.1056C81.1079 78.1056 79.9466 77.9024 78.8435 77.5105C78.6257 77.4234 78.3935 77.3799 78.1468 77.3799H74.7502C71.252 77.3799 68.3779 80.1523 68.2327 83.6505L68.1892 98.1224" stroke="#001F3A" stroke-width="0.484" stroke-miterlimit="10" stroke-linecap="round" stroke-linejoin="round"/>
<path d="M88.7719 66.8126C89.5557 67.161 90.1073 68.0465 90.1073 69.0916C90.1073 70.1802 89.4977 71.1092 88.6558 71.414C88.4671 71.4866 88.3074 71.6318 88.2203 71.835C87.1317 74.4332 84.8673 76.2186 82.2545 76.2186C79.6417 76.2186 77.3628 74.4332 76.2887 71.835C76.2016 71.6318 76.0419 71.4866 75.8532 71.414C75.0113 71.1092 74.4016 70.1802 74.4016 69.0916C74.4016 68.0465 74.9533 67.161 75.7371 66.8126C77.5806 67.9448 82.4722 66.5223 83.8948 62.7774C83.9818 62.5451 84.3012 62.5741 84.3593 62.8064C84.9689 65.3466 86.4059 67.8868 88.7719 66.8126Z" fill="white"/>
<path d="M88.7719 66.8126C89.5557 67.161 90.1073 68.0465 90.1073 69.0916C90.1073 70.1802 89.4977 71.1092 88.6558 71.414C88.4671 71.4866 88.3074 71.6318 88.2203 71.835C87.1317 74.4332 84.8673 76.2186 82.2545 76.2186C79.6417 76.2186 77.3628 74.4332 76.2887 71.835C76.2016 71.6318 76.0419 71.4866 75.8532 71.414C75.0113 71.1092 74.4016 70.1802 74.4016 69.0916C74.4016 68.0465 74.9533 67.161 75.7371 66.8126C77.5806 67.9448 82.4722 66.5223 83.8948 62.7774C83.9818 62.5451 84.3012 62.5741 84.3593 62.8064C84.9689 65.3466 86.4059 67.8868 88.7719 66.8126Z" stroke="#001F3A" stroke-width="0.484" stroke-miterlimit="10" stroke-linecap="round" stroke-linejoin="round"/>
<path d="M88.7571 96.8305V85.4359C88.7571 84.8843 88.3071 84.4489 87.7701 84.4489H76.9126C76.361 84.4489 75.9255 84.8988 75.9255 85.4359V96.4386" fill="white"/>
<path d="M88.7571 96.8305V85.4359C88.7571 84.8843 88.3071 84.4489 87.7701 84.4489H76.9126C76.361 84.4489 75.9255 84.8988 75.9255 85.4359V96.4386" stroke="#001F3A" stroke-width="0.484" stroke-miterlimit="10" stroke-linecap="round" stroke-linejoin="round"/>
<path d="M83.1981 99.8062H76.3033C75.8097 99.8062 75.4033 99.3997 75.4033 98.9207V95.0161C75.4033 94.5226 75.8097 94.1161 76.3033 94.1161H78.4806C78.7419 94.1161 79.0032 94.2032 79.1919 94.3774L79.8015 94.8854C80.0628 95.1032 80.4111 95.2338 80.7595 95.2338H82.4433" fill="white"/>
<path d="M83.1981 99.8062H76.3033C75.8097 99.8062 75.4033 99.3997 75.4033 98.9207V95.0161C75.4033 94.5226 75.8097 94.1161 76.3033 94.1161H78.4806C78.7419 94.1161 79.0032 94.2032 79.1919 94.3774L79.8015 94.8854C80.0628 95.1032 80.4111 95.2338 80.7595 95.2338H82.4433" stroke="#001F3A" stroke-width="0.484" stroke-miterlimit="10" stroke-linecap="round" stroke-linejoin="round"/>
<path d="M78.1321 77.3799C78.1321 81.72 81.4562 84.4489 81.4562 84.4489Z" fill="white"/>
<path d="M78.1321 77.3799C78.1321 81.72 81.4562 84.4489 81.4562 84.4489" stroke="#001F3A" stroke-width="0.484" stroke-miterlimit="10" stroke-linecap="round" stroke-linejoin="round"/>
<path d="M86.3624 77.3799C86.3624 81.72 83.0383 84.4489 83.0383 84.4489Z" fill="white"/>
<path d="M86.3624 77.3799C86.3624 81.72 83.0383 84.4489 83.0383 84.4489" stroke="#001F3A" stroke-width="0.484" stroke-miterlimit="10" stroke-linecap="round" stroke-linejoin="round"/>
<path d="M56.5621 89.326V87.2648L54.6316 86.4084L64.473 79.1507L74.3 86.4084L72.3694 87.2503V89.326" fill="white"/>
<path d="M56.5621 89.326V87.2648L54.6316 86.4084L64.473 79.1507L74.3 86.4084L72.3694 87.2503V89.326" stroke="#001F3A" stroke-width="0.484" stroke-miterlimit="10" stroke-linecap="round" stroke-linejoin="round"/>
<path d="M80.3383 89.326H84.33C84.4607 89.326 84.5768 89.2099 84.5768 89.0793V87.3519C84.5768 87.2213 84.4607 87.1052 84.33 87.1052H80.3383C80.2077 87.1052 80.0916 87.2213 80.0916 87.3519V89.0793C80.0916 89.2244 80.2077 89.326 80.3383 89.326Z" fill="white"/>
<path d="M80.3383 89.326H84.33C84.4607 89.326 84.5768 89.2099 84.5768 89.0793V87.3519C84.5768 87.2213 84.4607 87.1052 84.33 87.1052H80.3383C80.2077 87.1052 80.0916 87.2213 80.0916 87.3519V89.0793C80.0916 89.2244 80.2077 89.326 80.3383 89.326Z" stroke="#001F3A" stroke-width="0.484" stroke-miterlimit="10" stroke-linecap="round" stroke-linejoin="round"/>
<path d="M86.3622 91.8372H78.4077" stroke="#001F3A" stroke-width="0.484" stroke-miterlimit="10" stroke-linecap="round" stroke-linejoin="round"/>
<path d="M73.4583 98.2966L73.4873 95.8144C73.4873 95.466 73.1971 95.1612 72.8487 95.1612L71.5132 95.1467C71.3681 95.1467 71.2375 95.0451 71.1939 94.8999C71.0778 94.5225 70.9327 94.1451 70.744 93.7968C70.6714 93.6661 70.7004 93.4919 70.802 93.3903L71.7455 92.4613C71.9923 92.2146 72.0068 91.8082 71.7601 91.5469L70.0182 89.776C69.7714 89.5147 69.365 89.5147 69.1037 89.7615L68.1456 90.6905C68.0295 90.7921 67.8699 90.8211 67.7393 90.7485C67.3909 90.5598 67.028 90.4002 66.6361 90.284C66.4909 90.2405 66.3893 90.1099 66.3893 89.9502L66.4039 88.6148C66.4039 88.2519 66.1281 87.9616 65.7652 87.9616L63.283 87.9325C62.9347 87.9325 62.6298 88.2083 62.6298 88.5712L62.6443 89.9212C62.6443 90.0663 62.5428 90.1969 62.3976 90.2405C62.0202 90.3566 61.6428 90.5018 61.2944 90.6905C61.1638 90.763 61.0041 90.734 60.8879 90.6324L59.959 89.6889C59.7123 89.4276 59.3058 89.4276 59.0445 89.6744L57.2736 91.4162C57.0269 91.663 57.0123 92.0694 57.2591 92.3307L58.1881 93.2887C58.2897 93.3903 58.3187 93.5645 58.2461 93.6952C58.0574 94.0435 57.8978 94.4064 57.7817 94.7838C57.7382 94.929 57.6075 95.0306 57.4478 95.0306L56.1124 95.0161C55.764 95.0161 55.4592 95.2919 55.4592 95.6547L55.4302 98.1369C55.4302 98.4998 55.706 98.7901 56.0689 98.7901H57.4188C57.564 98.7901 57.6946 98.8917 57.7381 99.0368C57.8542 99.4142 57.9994 99.7916 58.1881 100.14C58.2607 100.271 58.2317 100.445 58.1301 100.546L57.172 101.475C56.9252 101.722 56.9107 102.129 57.1575 102.39L58.8993 104.161C59.1461 104.422 59.5525 104.422 59.8138 104.175L60.7574 103.246C60.859 103.145 61.0331 103.116 61.1637 103.188C61.5121 103.377 61.875 103.537 62.2669 103.653C62.4121 103.696 62.5137 103.827 62.5137 103.987L62.4992 105.322C62.4992 105.685 62.7895 105.975 63.1379 105.975L65.62 106.004C65.9829 106.004 66.2732 105.728 66.2732 105.366L66.2877 104.03C66.2877 103.885 66.3893 103.754 66.5345 103.711C66.9119 103.595 67.2893 103.45 67.6376 103.261C67.7683 103.188 67.9424 103.217 68.044 103.319L68.973 104.262C69.2198 104.524 69.6262 104.524 69.8875 104.277L71.6584 102.535C71.9052 102.288 71.9196 101.882 71.6729 101.621L70.744 100.677C70.6424 100.575 70.6133 100.401 70.6858 100.271C70.8745 99.9223 71.0197 99.5594 71.1504 99.1675C71.1939 99.0223 71.3246 98.9207 71.4843 98.9207L72.8051 98.9352C73.168 98.9352 73.4583 98.6594 73.4583 98.2966Z" fill="white"/>
<path d="M73.4583 98.2966L73.4873 95.8144C73.4873 95.466 73.1971 95.1612 72.8487 95.1612L71.5132 95.1467C71.3681 95.1467 71.2375 95.0451 71.1939 94.8999C71.0778 94.5225 70.9327 94.1451 70.744 93.7968C70.6714 93.6661 70.7004 93.4919 70.802 93.3903L71.7455 92.4613C71.9923 92.2146 72.0068 91.8082 71.7601 91.5469L70.0182 89.776C69.7714 89.5147 69.365 89.5147 69.1037 89.7615L68.1456 90.6905C68.0295 90.7921 67.8699 90.8211 67.7393 90.7485C67.3909 90.5598 67.028 90.4002 66.6361 90.284C66.4909 90.2405 66.3893 90.1099 66.3893 89.9502L66.4039 88.6148C66.4039 88.2519 66.1281 87.9616 65.7652 87.9616L63.283 87.9325C62.9347 87.9325 62.6298 88.2083 62.6298 88.5712L62.6443 89.9212C62.6443 90.0663 62.5428 90.1969 62.3976 90.2405C62.0202 90.3566 61.6428 90.5018 61.2944 90.6905C61.1638 90.763 61.0041 90.734 60.8879 90.6324L59.959 89.6889C59.7123 89.4276 59.3058 89.4276 59.0445 89.6744L57.2736 91.4162C57.0269 91.663 57.0123 92.0694 57.2591 92.3307L58.1881 93.2887C58.2897 93.3903 58.3187 93.5645 58.2461 93.6952C58.0574 94.0435 57.8978 94.4064 57.7817 94.7838C57.7382 94.929 57.6075 95.0306 57.4478 95.0306L56.1124 95.0161C55.764 95.0161 55.4592 95.2919 55.4592 95.6547L55.4302 98.1369C55.4302 98.4998 55.706 98.7901 56.0689 98.7901H57.4188C57.564 98.7901 57.6946 98.8917 57.7381 99.0368C57.8542 99.4142 57.9994 99.7916 58.1881 100.14C58.2607 100.271 58.2317 100.445 58.1301 100.546L57.172 101.475C56.9252 101.722 56.9107 102.129 57.1575 102.39L58.8993 104.161C59.1461 104.422 59.5525 104.422 59.8138 104.175L60.7574 103.246C60.859 103.145 61.0331 103.116 61.1637 103.188C61.5121 103.377 61.875 103.537 62.2669 103.653C62.4121 103.696 62.5137 103.827 62.5137 103.987L62.4992 105.322C62.4992 105.685 62.7895 105.975 63.1379 105.975L65.62 106.004C65.9829 106.004 66.2732 105.728 66.2732 105.366L66.2877 104.03C66.2877 103.885 66.3893 103.754 66.5345 103.711C66.9119 103.595 67.2893 103.45 67.6376 103.261C67.7683 103.188 67.9424 103.217 68.044 103.319L68.973 104.262C69.2198 104.524 69.6262 104.524 69.8875 104.277L71.6584 102.535C71.9052 102.288 71.9196 101.882 71.6729 101.621L70.744 100.677C70.6424 100.575 70.6133 100.401 70.6858 100.271C70.8745 99.9223 71.0197 99.5594 71.1504 99.1675C71.1939 99.0223 71.3246 98.9207 71.4843 98.9207L72.8051 98.9352C73.168 98.9352 73.4583 98.6594 73.4583 98.2966Z" stroke="#001F3A" stroke-width="0.484" stroke-miterlimit="10" stroke-linecap="round" stroke-linejoin="round"/>
<path d="M63.3841 95.1177C63.3841 96.0612 62.6148 96.8305 61.6713 96.8305C60.7278 96.8305 59.9585 96.0612 59.9585 95.1177C59.9585 94.1742 60.7278 93.4049 61.6713 93.4049C62.6148 93.4049 63.3841 94.1742 63.3841 95.1177Z" fill="white"/>
<path d="M63.3841 95.1177C63.3841 96.0612 62.6148 96.8305 61.6713 96.8305C60.7278 96.8305 59.9585 96.0612 59.9585 95.1177C59.9585 94.1742 60.7278 93.4049 61.6713 93.4049C62.6148 93.4049 63.3841 94.1742 63.3841 95.1177Z" stroke="#001F3A" stroke-width="0.484" stroke-miterlimit="10" stroke-linecap="round" stroke-linejoin="round"/>
<path d="M68.9438 98.5433C68.9438 99.4868 68.1744 100.256 67.2309 100.256C66.2874 100.256 65.5181 99.4868 65.5181 98.5433C65.5181 97.5998 66.2874 96.8305 67.2309 96.8305C68.1744 96.8305 68.9438 97.5998 68.9438 98.5433Z" fill="white"/>
<path d="M68.9438 98.5433C68.9438 99.4868 68.1744 100.256 67.2309 100.256C66.2874 100.256 65.5181 99.4868 65.5181 98.5433C65.5181 97.5998 66.2874 96.8305 67.2309 96.8305C68.1744 96.8305 68.9438 97.5998 68.9438 98.5433Z" stroke="#001F3A" stroke-width="0.484" stroke-miterlimit="10" stroke-linecap="round" stroke-linejoin="round"/>
<path d="M66.5337 93.4049L61.7146 100.924" stroke="#001F3A" stroke-width="0.484" stroke-miterlimit="10" stroke-linecap="round" stroke-linejoin="round"/>
<path d="M90.601 94.6242H83.1837C82.7772 94.6242 82.4434 94.958 82.4434 95.3645V99.0659C82.4434 99.4723 82.7772 99.8062 83.1837 99.8062H91.4139" fill="white"/>
<path d="M90.601 94.6242H83.1837C82.7772 94.6242 82.4434 94.958 82.4434 95.3645V99.0659C82.4434 99.4723 82.7772 99.8062 83.1837 99.8062H91.4139" stroke="#001F3A" stroke-width="0.484" stroke-miterlimit="10" stroke-linecap="round" stroke-linejoin="round"/>
<path d="M90.7751 86.6842L91.109 94.1016C91.1235 94.3774 90.8913 94.6242 90.6155 94.6242" fill="white"/>
<path d="M90.7751 86.6842L91.109 94.1016C91.1235 94.3774 90.8913 94.6242 90.6155 94.6242" stroke="#001F3A" stroke-width="0.484" stroke-miterlimit="10" stroke-linecap="round" stroke-linejoin="round"/>
</svg>
